<?xml version="1.0" encoding="utf-8" standalone="no"?>
<!DOCTYPE svg PUBLIC "-//W3C//DTD SVG 1.1//EN"
  "http://www.w3.org/Graphics/SVG/1.1/DTD/svg11.dtd">
<!-- Created with matplotlib (http://matplotlib.org/) -->
<svg height="720pt" version="1.1" viewBox="0 0 720 720" width="720pt" xmlns="http://www.w3.org/2000/svg" xmlns:xlink="http://www.w3.org/1999/xlink">
 <defs>
  <style type="text/css">
*{stroke-linecap:butt;stroke-linejoin:round;}
  </style>
 </defs>
 <g id="figure_1">
  <g id="patch_1">
   <path d="M 0 720 
L 720 720 
L 720 0 
L 0 0 
z
" style="fill:#ffffff;"/>
  </g>
  <g id="axes_1">
   <g id="patch_2">
    <path d="M 90 630 
L 648 630 
L 648 86.4 
L 90 86.4 
z
" style="fill:#ffffff;"/>
   </g>
   <g id="matplotlib.axis_1">
    <g id="xtick_1">
     <g id="line2d_1">
      <defs>
       <path d="M 0 0 
L 0 -6 
" id="mbddc57903e" style="stroke:#262626;"/>
      </defs>
      <g>
       <use style="fill:#262626;stroke:#262626;" x="90" xlink:href="#mbddc57903e" y="630"/>
      </g>
     </g>
     <g id="text_1">
      <!-- 0 -->
      <defs>
       <path d="M 4.15625 35.296875 
Q 4.15625 48 6.765625 55.734375 
Q 9.375 63.484375 14.515625 67.671875 
Q 19.671875 71.875 27.484375 71.875 
Q 33.25 71.875 37.59375 69.546875 
Q 41.9375 67.234375 44.765625 62.859375 
Q 47.609375 58.5 49.21875 52.21875 
Q 50.828125 45.953125 50.828125 35.296875 
Q 50.828125 22.703125 48.234375 14.96875 
Q 45.65625 7.234375 40.5 3 
Q 35.359375 -1.21875 27.484375 -1.21875 
Q 17.140625 -1.21875 11.234375 6.203125 
Q 4.15625 15.140625 4.15625 35.296875 
z
M 13.1875 35.296875 
Q 13.1875 17.671875 17.3125 11.828125 
Q 21.4375 6 27.484375 6 
Q 33.546875 6 37.671875 11.859375 
Q 41.796875 17.71875 41.796875 35.296875 
Q 41.796875 52.984375 37.671875 58.78125 
Q 33.546875 64.59375 27.390625 64.59375 
Q 21.34375 64.59375 17.71875 59.46875 
Q 13.1875 52.9375 13.1875 35.296875 
z
" id="ArialMT-30"/>
      </defs>
      <g style="fill:#262626;" transform="translate(80.268359 662.052344)scale(0.35 -0.35)">
       <use xlink:href="#ArialMT-30"/>
      </g>
     </g>
    </g>
    <g id="xtick_2">
     <g id="line2d_2">
      <g>
       <use style="fill:#262626;stroke:#262626;" x="201.6" xlink:href="#mbddc57903e" y="630"/>
      </g>
     </g>
     <g id="text_2">
      <!-- 1 -->
      <defs>
       <path d="M 37.25 0 
L 28.46875 0 
L 28.46875 56 
Q 25.296875 52.984375 20.140625 49.953125 
Q 14.984375 46.921875 10.890625 45.40625 
L 10.890625 53.90625 
Q 18.265625 57.375 23.78125 62.296875 
Q 29.296875 67.234375 31.59375 71.875 
L 37.25 71.875 
z
" id="ArialMT-31"/>
      </defs>
      <g style="fill:#262626;" transform="translate(191.868359 662.052344)scale(0.35 -0.35)">
       <use xlink:href="#ArialMT-31"/>
      </g>
     </g>
    </g>
    <g id="xtick_3">
     <g id="line2d_3">
      <g>
       <use style="fill:#262626;stroke:#262626;" x="313.2" xlink:href="#mbddc57903e" y="630"/>
      </g>
     </g>
     <g id="text_3">
      <!-- 2 -->
      <defs>
       <path d="M 50.34375 8.453125 
L 50.34375 0 
L 3.03125 0 
Q 2.9375 3.171875 4.046875 6.109375 
Q 5.859375 10.9375 9.828125 15.625 
Q 13.8125 20.3125 21.34375 26.46875 
Q 33.015625 36.03125 37.109375 41.625 
Q 41.21875 47.21875 41.21875 52.203125 
Q 41.21875 57.421875 37.46875 61 
Q 33.734375 64.59375 27.734375 64.59375 
Q 21.390625 64.59375 17.578125 60.78125 
Q 13.765625 56.984375 13.71875 50.25 
L 4.6875 51.171875 
Q 5.609375 61.28125 11.65625 66.578125 
Q 17.71875 71.875 27.9375 71.875 
Q 38.234375 71.875 44.234375 66.15625 
Q 50.25 60.453125 50.25 52 
Q 50.25 47.703125 48.484375 43.546875 
Q 46.734375 39.40625 42.65625 34.8125 
Q 38.578125 30.21875 29.109375 22.21875 
Q 21.1875 15.578125 18.9375 13.203125 
Q 16.703125 10.84375 15.234375 8.453125 
z
" id="ArialMT-32"/>
      </defs>
      <g style="fill:#262626;" transform="translate(303.468359 662.052344)scale(0.35 -0.35)">
       <use xlink:href="#ArialMT-32"/>
      </g>
     </g>
    </g>
    <g id="xtick_4">
     <g id="line2d_4">
      <g>
       <use style="fill:#262626;stroke:#262626;" x="424.8" xlink:href="#mbddc57903e" y="630"/>
      </g>
     </g>
     <g id="text_4">
      <!-- 3 -->
      <defs>
       <path d="M 4.203125 18.890625 
L 12.984375 20.0625 
Q 14.5 12.59375 18.140625 9.296875 
Q 21.78125 6 27 6 
Q 33.203125 6 37.46875 10.296875 
Q 41.75 14.59375 41.75 20.953125 
Q 41.75 27 37.796875 30.921875 
Q 33.84375 34.859375 27.734375 34.859375 
Q 25.25 34.859375 21.53125 33.890625 
L 22.515625 41.609375 
Q 23.390625 41.5 23.921875 41.5 
Q 29.546875 41.5 34.03125 44.421875 
Q 38.53125 47.359375 38.53125 53.46875 
Q 38.53125 58.296875 35.25 61.46875 
Q 31.984375 64.65625 26.8125 64.65625 
Q 21.6875 64.65625 18.265625 61.421875 
Q 14.84375 58.203125 13.875 51.765625 
L 5.078125 53.328125 
Q 6.6875 62.15625 12.390625 67.015625 
Q 18.109375 71.875 26.609375 71.875 
Q 32.46875 71.875 37.390625 69.359375 
Q 42.328125 66.84375 44.9375 62.5 
Q 47.5625 58.15625 47.5625 53.265625 
Q 47.5625 48.640625 45.0625 44.828125 
Q 42.578125 41.015625 37.703125 38.765625 
Q 44.046875 37.3125 47.5625 32.6875 
Q 51.078125 28.078125 51.078125 21.140625 
Q 51.078125 11.765625 44.234375 5.25 
Q 37.40625 -1.265625 26.953125 -1.265625 
Q 17.53125 -1.265625 11.296875 4.34375 
Q 5.078125 9.96875 4.203125 18.890625 
z
" id="ArialMT-33"/>
      </defs>
      <g style="fill:#262626;" transform="translate(415.068359 662.052344)scale(0.35 -0.35)">
       <use xlink:href="#ArialMT-33"/>
      </g>
     </g>
    </g>
    <g id="xtick_5">
     <g id="line2d_5">
      <g>
       <use style="fill:#262626;stroke:#262626;" x="536.4" xlink:href="#mbddc57903e" y="630"/>
      </g>
     </g>
     <g id="text_5">
      <!-- 4 -->
      <defs>
       <path d="M 32.328125 0 
L 32.328125 17.140625 
L 1.265625 17.140625 
L 1.265625 25.203125 
L 33.9375 71.578125 
L 41.109375 71.578125 
L 41.109375 25.203125 
L 50.78125 25.203125 
L 50.78125 17.140625 
L 41.109375 17.140625 
L 41.109375 0 
z
M 32.328125 25.203125 
L 32.328125 57.46875 
L 9.90625 25.203125 
z
" id="ArialMT-34"/>
      </defs>
      <g style="fill:#262626;" transform="translate(526.668359 662.052344)scale(0.35 -0.35)">
       <use xlink:href="#ArialMT-34"/>
      </g>
     </g>
    </g>
    <g id="xtick_6">
     <g id="line2d_6">
      <g>
       <use style="fill:#262626;stroke:#262626;" x="648" xlink:href="#mbddc57903e" y="630"/>
      </g>
     </g>
     <g id="text_6">
      <!-- 5 -->
      <defs>
       <path d="M 4.15625 18.75 
L 13.375 19.53125 
Q 14.40625 12.796875 18.140625 9.390625 
Q 21.875 6 27.15625 6 
Q 33.5 6 37.890625 10.78125 
Q 42.28125 15.578125 42.28125 23.484375 
Q 42.28125 31 38.0625 35.34375 
Q 33.84375 39.703125 27 39.703125 
Q 22.75 39.703125 19.328125 37.765625 
Q 15.921875 35.84375 13.96875 32.765625 
L 5.71875 33.84375 
L 12.640625 70.609375 
L 48.25 70.609375 
L 48.25 62.203125 
L 19.671875 62.203125 
L 15.828125 42.96875 
Q 22.265625 47.46875 29.34375 47.46875 
Q 38.71875 47.46875 45.15625 40.96875 
Q 51.609375 34.46875 51.609375 24.265625 
Q 51.609375 14.546875 45.953125 7.46875 
Q 39.0625 -1.21875 27.15625 -1.21875 
Q 17.390625 -1.21875 11.203125 4.25 
Q 5.03125 9.71875 4.15625 18.75 
z
" id="ArialMT-35"/>
      </defs>
      <g style="fill:#262626;" transform="translate(638.268359 662.052344)scale(0.35 -0.35)">
       <use xlink:href="#ArialMT-35"/>
      </g>
     </g>
    </g>
   </g>
   <g id="matplotlib.axis_2">
    <g id="ytick_1">
     <g id="line2d_7">
      <defs>
       <path d="M 0 0 
L 6 0 
" id="mc418993a78" style="stroke:#262626;"/>
      </defs>
      <g>
       <use style="fill:#262626;stroke:#262626;" x="90" xlink:href="#mc418993a78" y="630"/>
      </g>
     </g>
     <g id="text_7">
      <!-- 0.0 -->
      <defs>
       <path d="M 9.078125 0 
L 9.078125 10.015625 
L 19.09375 10.015625 
L 19.09375 0 
z
" id="ArialMT-2e"/>
      </defs>
      <g style="fill:#262626;" transform="translate(34.35 642.526172)scale(0.35 -0.35)">
       <use xlink:href="#ArialMT-30"/>
       <use x="55.615234" xlink:href="#ArialMT-2e"/>
       <use x="83.398438" xlink:href="#ArialMT-30"/>
      </g>
     </g>
    </g>
    <g id="ytick_2">
     <g id="line2d_8">
      <g>
       <use style="fill:#262626;stroke:#262626;" x="90" xlink:href="#mc418993a78" y="552.342857"/>
      </g>
     </g>
     <g id="text_8">
      <!-- 0.1 -->
      <g style="fill:#262626;" transform="translate(34.35 564.869029)scale(0.35 -0.35)">
       <use xlink:href="#ArialMT-30"/>
       <use x="55.615234" xlink:href="#ArialMT-2e"/>
       <use x="83.398438" xlink:href="#ArialMT-31"/>
      </g>
     </g>
    </g>
    <g id="ytick_3">
     <g id="line2d_9">
      <g>
       <use style="fill:#262626;stroke:#262626;" x="90" xlink:href="#mc418993a78" y="474.685714"/>
      </g>
     </g>
     <g id="text_9">
      <!-- 0.2 -->
      <g style="fill:#262626;" transform="translate(34.35 487.211886)scale(0.35 -0.35)">
       <use xlink:href="#ArialMT-30"/>
       <use x="55.615234" xlink:href="#ArialMT-2e"/>
       <use x="83.398438" xlink:href="#ArialMT-32"/>
      </g>
     </g>
    </g>
    <g id="ytick_4">
     <g id="line2d_10">
      <g>
       <use style="fill:#262626;stroke:#262626;" x="90" xlink:href="#mc418993a78" y="397.028571"/>
      </g>
     </g>
     <g id="text_10">
      <!-- 0.3 -->
      <g style="fill:#262626;" transform="translate(34.35 409.554743)scale(0.35 -0.35)">
       <use xlink:href="#ArialMT-30"/>
       <use x="55.615234" xlink:href="#ArialMT-2e"/>
       <use x="83.398438" xlink:href="#ArialMT-33"/>
      </g>
     </g>
    </g>
    <g id="ytick_5">
     <g id="line2d_11">
      <g>
       <use style="fill:#262626;stroke:#262626;" x="90" xlink:href="#mc418993a78" y="319.371429"/>
      </g>
     </g>
     <g id="text_11">
      <!-- 0.4 -->
      <g style="fill:#262626;" transform="translate(34.35 331.8976)scale(0.35 -0.35)">
       <use xlink:href="#ArialMT-30"/>
       <use x="55.615234" xlink:href="#ArialMT-2e"/>
       <use x="83.398438" xlink:href="#ArialMT-34"/>
      </g>
     </g>
    </g>
    <g id="ytick_6">
     <g id="line2d_12">
      <g>
       <use style="fill:#262626;stroke:#262626;" x="90" xlink:href="#mc418993a78" y="241.714286"/>
      </g>
     </g>
     <g id="text_12">
      <!-- 0.5 -->
      <g style="fill:#262626;" transform="translate(34.35 254.240458)scale(0.35 -0.35)">
       <use xlink:href="#ArialMT-30"/>
       <use x="55.615234" xlink:href="#ArialMT-2e"/>
       <use x="83.398438" xlink:href="#ArialMT-35"/>
      </g>
     </g>
    </g>
    <g id="ytick_7">
     <g id="line2d_13">
      <g>
       <use style="fill:#262626;stroke:#262626;" x="90" xlink:href="#mc418993a78" y="164.057143"/>
      </g>
     </g>
     <g id="text_13">
      <!-- 0.6 -->
      <defs>
       <path d="M 49.75 54.046875 
L 41.015625 53.375 
Q 39.84375 58.546875 37.703125 60.890625 
Q 34.125 64.65625 28.90625 64.65625 
Q 24.703125 64.65625 21.53125 62.3125 
Q 17.390625 59.28125 14.984375 53.46875 
Q 12.59375 47.65625 12.5 36.921875 
Q 15.671875 41.75 20.265625 44.09375 
Q 24.859375 46.4375 29.890625 46.4375 
Q 38.671875 46.4375 44.84375 39.96875 
Q 51.03125 33.5 51.03125 23.25 
Q 51.03125 16.5 48.125 10.71875 
Q 45.21875 4.9375 40.140625 1.859375 
Q 35.0625 -1.21875 28.609375 -1.21875 
Q 17.625 -1.21875 10.6875 6.859375 
Q 3.765625 14.9375 3.765625 33.5 
Q 3.765625 54.25 11.421875 63.671875 
Q 18.109375 71.875 29.4375 71.875 
Q 37.890625 71.875 43.28125 67.140625 
Q 48.6875 62.40625 49.75 54.046875 
z
M 13.875 23.1875 
Q 13.875 18.65625 15.796875 14.5 
Q 17.71875 10.359375 21.1875 8.171875 
Q 24.65625 6 28.46875 6 
Q 34.03125 6 38.03125 10.484375 
Q 42.046875 14.984375 42.046875 22.703125 
Q 42.046875 30.125 38.078125 34.390625 
Q 34.125 38.671875 28.125 38.671875 
Q 22.171875 38.671875 18.015625 34.390625 
Q 13.875 30.125 13.875 23.1875 
z
" id="ArialMT-36"/>
      </defs>
      <g style="fill:#262626;" transform="translate(34.35 176.583315)scale(0.35 -0.35)">
       <use xlink:href="#ArialMT-30"/>
       <use x="55.615234" xlink:href="#ArialMT-2e"/>
       <use x="83.398438" xlink:href="#ArialMT-36"/>
      </g>
     </g>
    </g>
    <g id="ytick_8">
     <g id="line2d_14">
      <g>
       <use style="fill:#262626;stroke:#262626;" x="90" xlink:href="#mc418993a78" y="86.4"/>
      </g>
     </g>
     <g id="text_14">
      <!-- 0.7 -->
      <defs>
       <path d="M 4.734375 62.203125 
L 4.734375 70.65625 
L 51.078125 70.65625 
L 51.078125 63.8125 
Q 44.234375 56.546875 37.515625 44.484375 
Q 30.8125 32.421875 27.15625 19.671875 
Q 24.515625 10.6875 23.78125 0 
L 14.75 0 
Q 14.890625 8.453125 18.0625 20.40625 
Q 21.234375 32.375 27.171875 43.484375 
Q 33.109375 54.59375 39.796875 62.203125 
z
" id="ArialMT-37"/>
      </defs>
      <g style="fill:#262626;" transform="translate(34.35 98.926172)scale(0.35 -0.35)">
       <use xlink:href="#ArialMT-30"/>
       <use x="55.615234" xlink:href="#ArialMT-2e"/>
       <use x="83.398438" xlink:href="#ArialMT-37"/>
      </g>
     </g>
    </g>
   </g>
   <g id="PolyCollection_1">
    <path clip-path="url(#p0eb52222a3)" d="M 78.459961 629.942746 
L 78.459961 630 
L 82.596024 630 
L 86.732088 630 
L 90.868151 630 
L 95.004215 630 
L 99.140279 630 
L 103.276342 630 
L 107.412406 630 
L 111.548469 630 
L 115.684533 630 
L 119.820597 630 
L 123.95666 630 
L 128.092724 630 
L 132.228788 630 
L 136.364851 630 
L 140.500915 630 
L 144.636978 630 
L 148.773042 630 
L 152.909106 630 
L 157.045169 630 
L 161.181233 630 
L 165.317296 630 
L 169.45336 630 
L 173.589424 630 
L 177.725487 630 
L 181.861551 630 
L 185.997615 630 
L 190.133678 630 
L 194.269742 630 
L 198.405805 630 
L 202.541869 630 
L 206.677933 630 
L 210.813996 630 
L 214.95006 630 
L 219.086123 630 
L 223.222187 630 
L 227.358251 630 
L 231.494314 630 
L 235.630378 630 
L 239.766441 630 
L 243.902505 630 
L 248.038569 630 
L 252.174632 630 
L 256.310696 630 
L 260.44676 630 
L 264.582823 630 
L 268.718887 630 
L 272.85495 630 
L 276.991014 630 
L 281.127078 630 
L 285.263141 630 
L 289.399205 630 
L 293.535268 630 
L 297.671332 630 
L 301.807396 630 
L 305.943459 630 
L 310.079523 630 
L 314.215587 630 
L 318.35165 630 
L 322.487714 630 
L 326.623777 630 
L 330.759841 630 
L 334.895905 630 
L 339.031968 630 
L 343.168032 630 
L 347.304095 630 
L 351.440159 630 
L 355.576223 630 
L 359.712286 630 
L 363.84835 630 
L 367.984413 630 
L 372.120477 630 
L 376.256541 630 
L 380.392604 630 
L 384.528668 630 
L 388.664732 630 
L 392.800795 630 
L 396.936859 630 
L 401.072922 630 
L 405.208986 630 
L 409.34505 630 
L 413.481113 630 
L 417.617177 630 
L 421.75324 630 
L 425.889304 630 
L 430.025368 630 
L 434.161431 630 
L 438.297495 630 
L 442.433559 630 
L 446.569622 630 
L 450.705686 630 
L 454.841749 630 
L 458.977813 630 
L 463.113877 630 
L 467.24994 630 
L 471.386004 630 
L 475.522067 630 
L 479.658131 630 
L 483.794195 630 
L 487.930258 630 
L 492.066322 630 
L 496.202385 630 
L 500.338449 630 
L 504.474513 630 
L 508.610576 630 
L 512.74664 630 
L 516.882704 630 
L 521.018767 630 
L 525.154831 630 
L 529.290894 630 
L 533.426958 630 
L 537.563022 630 
L 541.699085 630 
L 545.835149 630 
L 549.971212 630 
L 554.107276 630 
L 558.24334 630 
L 562.379403 630 
L 566.515467 630 
L 570.651531 630 
L 574.787594 630 
L 578.923658 630 
L 583.059721 630 
L 587.195785 630 
L 591.331849 630 
L 595.467912 630 
L 599.603976 630 
L 603.740039 630 
L 603.740039 629.876617 
L 603.740039 629.876617 
L 599.603976 628.820595 
L 595.467912 624.926029 
L 591.331849 621.176568 
L 587.195785 623.54984 
L 583.059721 625.158082 
L 578.923658 624.671258 
L 574.787594 623.852114 
L 570.651531 622.754784 
L 566.515467 621.47048 
L 562.379403 620.0855 
L 558.24334 618.384541 
L 554.107276 616.478494 
L 549.971212 614.478382 
L 545.835149 612.565079 
L 541.699085 610.27215 
L 537.563022 607.347909 
L 533.426958 604.029383 
L 529.290894 600.307834 
L 525.154831 596.356089 
L 521.018767 591.995219 
L 516.882704 586.967546 
L 512.74664 581.518538 
L 508.610576 575.647003 
L 504.474513 569.42774 
L 500.338449 562.706689 
L 496.202385 555.160256 
L 492.066322 547.451277 
L 487.930258 539.215698 
L 483.794195 530.255807 
L 479.658131 520.294174 
L 475.522067 509.861209 
L 471.386004 499.234573 
L 467.24994 487.813584 
L 463.113877 475.32775 
L 458.977813 462.72704 
L 454.841749 449.814623 
L 450.705686 436.771114 
L 446.569622 423.269289 
L 442.433559 408.517031 
L 438.297495 393.210813 
L 434.161431 379.160877 
L 430.025368 364.91427 
L 425.889304 349.409024 
L 421.75324 333.582634 
L 417.617177 318.859787 
L 413.481113 304.345064 
L 409.34505 290.569326 
L 405.208986 276.428757 
L 401.072922 262.436789 
L 396.936859 249.578424 
L 392.800795 237.445202 
L 388.664732 226.034039 
L 384.528668 215.210219 
L 380.392604 204.508758 
L 376.256541 195.788875 
L 372.120477 190.09258 
L 367.984413 184.947271 
L 363.84835 179.889633 
L 359.712286 176.578682 
L 355.576223 174.904149 
L 351.440159 174.127549 
L 347.304095 175.383606 
L 343.168032 177.792364 
L 339.031968 181.36949 
L 334.895905 186.642774 
L 330.759841 193.422045 
L 326.623777 200.939997 
L 322.487714 209.481608 
L 318.35165 219.046399 
L 314.215587 229.321837 
L 310.079523 240.650767 
L 305.943459 252.814727 
L 301.807396 265.182659 
L 297.671332 278.281236 
L 293.535268 292.388642 
L 289.399205 306.746845 
L 285.263141 321.469268 
L 281.127078 336.300799 
L 276.991014 350.86135 
L 272.85495 365.969048 
L 268.718887 381.547293 
L 264.582823 396.753122 
L 260.44676 411.083151 
L 256.310696 424.76792 
L 252.174632 438.391433 
L 248.038569 451.612856 
L 243.902505 463.816193 
L 239.766441 475.845282 
L 235.630378 487.718649 
L 231.494314 498.890432 
L 227.358251 509.297538 
L 223.222187 519.199876 
L 219.086123 529.08135 
L 214.95006 538.361149 
L 210.813996 546.985008 
L 206.677933 554.70929 
L 202.541869 561.789475 
L 198.405805 568.38386 
L 194.269742 574.409334 
L 190.133678 580.045716 
L 185.997615 585.142727 
L 181.861551 589.672106 
L 177.725487 594.070011 
L 173.589424 598.209321 
L 169.45336 602.120308 
L 165.317296 605.550855 
L 161.181233 608.393799 
L 157.045169 610.988519 
L 152.909106 613.308462 
L 148.773042 615.401328 
L 144.636978 617.39847 
L 140.500915 619.108254 
L 136.364851 620.46488 
L 132.228788 621.793424 
L 128.092724 623.007923 
L 123.95666 623.993565 
L 119.820597 624.911525 
L 115.684533 625.735873 
L 111.548469 626.288224 
L 107.412406 626.763819 
L 103.276342 627.250067 
L 99.140279 627.617015 
L 95.004215 626.944341 
L 90.868151 625.90412 
L 86.732088 627.660635 
L 82.596024 629.455037 
L 78.459961 629.942746 
z
" style="fill:#85531e;fill-opacity:0.25;"/>
   </g>
   <g id="PolyCollection_2">
    <path clip-path="url(#p0eb52222a3)" d="M 77.911307 629.986269 
L 77.911307 630 
L 82.056011 630 
L 86.200715 630 
L 90.345419 630 
L 94.490123 630 
L 98.634826 630 
L 102.77953 630 
L 106.924234 630 
L 111.068938 630 
L 115.213642 630 
L 119.358346 630 
L 123.503049 630 
L 127.647753 630 
L 131.792457 630 
L 135.937161 630 
L 140.081865 630 
L 144.226569 630 
L 148.371272 630 
L 152.515976 630 
L 156.66068 630 
L 160.805384 630 
L 164.950088 630 
L 169.094791 630 
L 173.239495 630 
L 177.384199 630 
L 181.528903 630 
L 185.673607 630 
L 189.818311 630 
L 193.963014 630 
L 198.107718 630 
L 202.252422 630 
L 206.397126 630 
L 210.54183 630 
L 214.686533 630 
L 218.831237 630 
L 222.975941 630 
L 227.120645 630 
L 231.265349 630 
L 235.410053 630 
L 239.554756 630 
L 243.69946 630 
L 247.844164 630 
L 251.988868 630 
L 256.133572 630 
L 260.278275 630 
L 264.422979 630 
L 268.567683 630 
L 272.712387 630 
L 276.857091 630 
L 281.001795 630 
L 285.146498 630 
L 289.291202 630 
L 293.435906 630 
L 297.58061 630 
L 301.725314 630 
L 305.870018 630 
L 310.014721 630 
L 314.159425 630 
L 318.304129 630 
L 322.448833 630 
L 326.593537 630 
L 330.73824 630 
L 334.882944 630 
L 339.027648 630 
L 343.172352 630 
L 347.317056 630 
L 351.46176 630 
L 355.606463 630 
L 359.751167 630 
L 363.895871 630 
L 368.040575 630 
L 372.185279 630 
L 376.329982 630 
L 380.474686 630 
L 384.61939 630 
L 388.764094 630 
L 392.908798 630 
L 397.053502 630 
L 401.198205 630 
L 405.342909 630 
L 409.487613 630 
L 413.632317 630 
L 417.777021 630 
L 421.921725 630 
L 426.066428 630 
L 430.211132 630 
L 434.355836 630 
L 438.50054 630 
L 442.645244 630 
L 446.789947 630 
L 450.934651 630 
L 455.079355 630 
L 459.224059 630 
L 463.368763 630 
L 467.513467 630 
L 471.65817 630 
L 475.802874 630 
L 479.947578 630 
L 484.092282 630 
L 488.236986 630 
L 492.381689 630 
L 496.526393 630 
L 500.671097 630 
L 504.815801 630 
L 508.960505 630 
L 513.105209 630 
L 517.249912 630 
L 521.394616 630 
L 525.53932 630 
L 529.684024 630 
L 533.828728 630 
L 537.973431 630 
L 542.118135 630 
L 546.262839 630 
L 550.407543 630 
L 554.552247 630 
L 558.696951 630 
L 562.841654 630 
L 566.986358 630 
L 571.131062 630 
L 575.275766 630 
L 579.42047 630 
L 583.565174 630 
L 587.709877 630 
L 591.854581 630 
L 595.999285 630 
L 600.143989 630 
L 604.288693 630 
L 604.288693 629.628155 
L 604.288693 629.628155 
L 600.143989 626.356927 
L 595.999285 611.545191 
L 591.854581 595.203213 
L 587.709877 604.922798 
L 583.565174 613.920703 
L 579.42047 613.535161 
L 575.275766 611.353436 
L 571.131062 608.773402 
L 566.986358 606.016498 
L 562.841654 602.86832 
L 558.696951 599.324339 
L 554.552247 595.255086 
L 550.407543 590.58864 
L 546.262839 585.745314 
L 542.118135 581.126839 
L 537.973431 576.20853 
L 533.828728 570.609504 
L 529.684024 564.174697 
L 525.53932 557.097718 
L 521.394616 549.638551 
L 517.249912 541.464876 
L 513.105209 533.044133 
L 508.960505 524.114259 
L 504.815801 514.172137 
L 500.671097 504.031476 
L 496.526393 494.047628 
L 492.381689 483.492271 
L 488.236986 471.904669 
L 484.092282 459.906137 
L 479.947578 447.761433 
L 475.802874 435.391805 
L 471.65817 422.864387 
L 467.513467 409.944216 
L 463.368763 396.389323 
L 459.224059 382.162585 
L 455.079355 367.858714 
L 450.934651 353.940252 
L 446.789947 341.110987 
L 442.645244 328.767372 
L 438.50054 315.364883 
L 434.355836 301.730602 
L 430.211132 289.164146 
L 426.066428 277.126335 
L 421.921725 264.887283 
L 417.777021 254.151255 
L 413.632317 245.357176 
L 409.487613 236.935733 
L 405.342909 227.902734 
L 401.198205 218.633142 
L 397.053502 211.018934 
L 392.908798 206.089606 
L 388.764094 202.315783 
L 384.61939 198.91644 
L 380.474686 196.273271 
L 376.329982 195.814896 
L 372.185279 197.415171 
L 368.040575 199.27176 
L 363.895871 201.821052 
L 359.751167 205.745025 
L 355.606463 210.858144 
L 351.46176 216.697693 
L 347.317056 223.386026 
L 343.172352 230.581789 
L 339.027648 238.672989 
L 334.882944 248.147192 
L 330.73824 258.889789 
L 326.593537 270.507313 
L 322.448833 282.118021 
L 318.304129 293.656805 
L 314.159425 305.984649 
L 310.014721 319.024484 
L 305.870018 332.15233 
L 301.725314 345.40913 
L 297.58061 359.11761 
L 293.435906 373.408766 
L 289.291202 387.240843 
L 285.146498 400.218933 
L 281.001795 413.481208 
L 276.857091 426.425607 
L 272.712387 439.161024 
L 268.567683 452.231259 
L 264.422979 464.631063 
L 260.278275 475.775056 
L 256.133572 486.500191 
L 251.988868 497.320917 
L 247.844164 507.906372 
L 243.69946 517.838853 
L 239.554756 527.063586 
L 235.410053 535.610184 
L 231.265349 543.699557 
L 227.120645 551.683957 
L 222.975941 559.463112 
L 218.831237 566.4178 
L 214.686533 572.597961 
L 210.54183 578.326649 
L 206.397126 583.582493 
L 202.252422 588.215558 
L 198.107718 592.395599 
L 193.963014 596.397244 
L 189.818311 600.310357 
L 185.673607 603.871574 
L 181.528903 606.782474 
L 177.384199 609.414236 
L 173.239495 611.971678 
L 169.094791 614.229067 
L 164.950088 616.21306 
L 160.805384 617.933323 
L 156.66068 619.403072 
L 152.515976 620.761071 
L 148.371272 622.02213 
L 144.226569 623.068599 
L 140.081865 623.97595 
L 135.937161 624.809873 
L 131.792457 625.508508 
L 127.647753 626.139126 
L 123.503049 626.650114 
L 119.358346 627.140792 
L 115.213642 627.596431 
L 111.068938 627.937802 
L 106.924234 628.207179 
L 102.77953 628.465979 
L 98.634826 628.577357 
L 94.490123 628.075499 
L 90.345419 627.554498 
L 86.200715 628.753212 
L 82.056011 629.739101 
L 77.911307 629.986269 
z
" style="fill:#28635d;fill-opacity:0.25;"/>
   </g>
   <g id="line2d_15">
    <path clip-path="url(#p0eb52222a3)" d="M 78.459961 629.942746 
L 82.596024 629.455037 
L 90.868151 625.90412 
L 95.004215 626.944341 
L 99.140279 627.617015 
L 103.276342 627.250067 
L 115.684533 625.735873 
L 123.95666 623.993565 
L 128.092724 623.007923 
L 136.364851 620.46488 
L 140.500915 619.108254 
L 144.636978 617.39847 
L 152.909106 613.308462 
L 157.045169 610.988519 
L 161.181233 608.393799 
L 165.317296 605.550855 
L 169.45336 602.120308 
L 173.589424 598.209321 
L 177.725487 594.070011 
L 185.997615 585.142727 
L 190.133678 580.045716 
L 194.269742 574.409334 
L 198.405805 568.38386 
L 202.541869 561.789475 
L 206.677933 554.70929 
L 210.813996 546.985008 
L 214.95006 538.361149 
L 219.086123 529.08135 
L 227.358251 509.297538 
L 231.494314 498.890432 
L 235.630378 487.718649 
L 243.902505 463.816193 
L 248.038569 451.612856 
L 252.174632 438.391433 
L 260.44676 411.083151 
L 264.582823 396.753122 
L 281.127078 336.300799 
L 289.399205 306.746845 
L 297.671332 278.281236 
L 301.807396 265.182659 
L 310.079523 240.650767 
L 314.215587 229.321837 
L 318.35165 219.046399 
L 322.487714 209.481608 
L 326.623777 200.939997 
L 330.759841 193.422045 
L 334.895905 186.642774 
L 339.031968 181.36949 
L 343.168032 177.792364 
L 347.304095 175.383606 
L 351.440159 174.127549 
L 355.576223 174.904149 
L 359.712286 176.578682 
L 363.84835 179.889633 
L 372.120477 190.09258 
L 376.256541 195.788875 
L 380.392604 204.508758 
L 388.664732 226.034039 
L 392.800795 237.445202 
L 396.936859 249.578424 
L 401.072922 262.436789 
L 413.481113 304.345064 
L 421.75324 333.582634 
L 430.025368 364.91427 
L 438.297495 393.210813 
L 442.433559 408.517031 
L 446.569622 423.269289 
L 450.705686 436.771114 
L 458.977813 462.72704 
L 467.24994 487.813584 
L 471.386004 499.234573 
L 479.658131 520.294174 
L 483.794195 530.255807 
L 487.930258 539.215698 
L 492.066322 547.451277 
L 500.338449 562.706689 
L 504.474513 569.42774 
L 508.610576 575.647003 
L 512.74664 581.518538 
L 516.882704 586.967546 
L 521.018767 591.995219 
L 525.154831 596.356089 
L 529.290894 600.307834 
L 533.426958 604.029383 
L 537.563022 607.347909 
L 541.699085 610.27215 
L 545.835149 612.565079 
L 558.24334 618.384541 
L 562.379403 620.0855 
L 570.651531 622.754784 
L 574.787594 623.852114 
L 578.923658 624.671258 
L 583.059721 625.158082 
L 587.195785 623.54984 
L 591.331849 621.176568 
L 599.603976 628.820595 
L 603.740039 629.876617 
L 603.740039 629.876617 
" style="fill:none;"/>
   </g>
   <g id="line2d_16">
    <path clip-path="url(#p0eb52222a3)" d="M 22.109988 629.884592 
L 31.992057 629.720337 
L 41.874126 629.238494 
L 46.81516 628.814105 
L 51.756195 628.233841 
L 56.697229 627.484887 
L 61.638263 626.573013 
L 71.520332 624.397714 
L 81.402401 622.153018 
L 86.343435 621.157684 
L 91.28447 620.291755 
L 101.166538 618.913575 
L 111.048607 617.819036 
L 120.930676 616.959369 
L 125.87171 616.69713 
L 130.812745 616.586281 
L 145.635848 616.524035 
L 150.576882 615.97536 
L 155.517917 614.688681 
L 160.458951 612.358366 
L 165.399985 608.738412 
L 170.34102 603.693005 
L 175.282054 597.230846 
L 180.223089 589.514184 
L 185.164123 580.838133 
L 204.92826 543.988216 
L 209.869295 535.596824 
L 214.810329 527.646066 
L 229.633432 504.571447 
L 234.574467 496.36185 
L 239.515501 487.53711 
L 244.456536 477.925456 
L 249.39757 467.380511 
L 254.338604 455.783185 
L 259.279639 443.053041 
L 264.220673 429.164044 
L 269.161707 414.153145 
L 274.102742 398.110501 
L 279.043776 381.148467 
L 283.984811 363.359186 
L 288.925845 344.781216 
L 293.866879 325.397665 
L 298.807914 305.178922 
L 303.748948 284.165045 
L 318.572051 219.66242 
L 323.513086 199.995624 
L 328.45412 182.818468 
L 333.395154 169.027314 
L 338.336189 159.249377 
L 343.277223 153.720346 
L 348.218258 152.244781 
L 353.159292 154.250132 
L 358.100326 158.920115 
L 363.041361 165.373679 
L 367.982395 172.847037 
L 372.92343 180.838855 
L 377.864464 189.190054 
L 382.805498 198.085325 
L 387.746533 207.979524 
L 392.687567 219.466038 
L 397.628601 233.114765 
L 402.569636 249.313364 
L 407.51067 268.145568 
L 412.451705 289.333454 
L 417.392739 312.257053 
L 427.274808 359.730817 
L 432.215842 382.395415 
L 437.156876 403.3376 
L 442.097911 422.163749 
L 447.038945 438.824247 
L 451.97998 453.577126 
L 456.921014 466.892512 
L 461.862048 479.321773 
L 481.626186 527.438539 
L 486.56722 539.19593 
L 491.508255 550.369053 
L 496.449289 560.675314 
L 501.390323 569.928154 
L 506.331358 578.063524 
L 511.272392 585.124398 
L 516.213427 591.216265 
L 521.154461 596.454279 
L 526.095495 600.922445 
L 531.03653 604.657936 
L 535.977564 607.662858 
L 540.918599 609.935546 
L 545.859633 611.507235 
L 550.800667 612.469187 
L 555.741702 612.979764 
L 565.62377 613.501558 
L 570.564805 613.940728 
L 575.505839 614.705802 
L 580.446874 615.853128 
L 585.387908 617.35371 
L 590.328942 619.110046 
L 600.211011 622.835499 
L 605.152046 624.537802 
L 610.09308 626.007237 
L 615.034114 627.202572 
L 619.975149 628.121802 
L 624.916183 628.791511 
L 629.857217 629.25421 
L 634.798252 629.556908 
L 644.680321 629.845854 
L 649.621355 629.88935 
L 649.621355 629.88935 
" style="fill:none;stroke:#85531e;stroke-linecap:round;stroke-width:1.5;"/>
   </g>
   <g id="line2d_17">
    <path clip-path="url(#p0eb52222a3)" d="M 77.911307 629.986269 
L 82.056011 629.739101 
L 86.200715 628.753212 
L 90.345419 627.554498 
L 98.634826 628.577357 
L 102.77953 628.465979 
L 115.213642 627.596431 
L 127.647753 626.139126 
L 135.937161 624.809873 
L 144.226569 623.068599 
L 148.371272 622.02213 
L 156.66068 619.403072 
L 160.805384 617.933323 
L 164.950088 616.21306 
L 169.094791 614.229067 
L 173.239495 611.971678 
L 181.528903 606.782474 
L 185.673607 603.871574 
L 189.818311 600.310357 
L 198.107718 592.395599 
L 202.252422 588.215558 
L 206.397126 583.582493 
L 210.54183 578.326649 
L 214.686533 572.597961 
L 218.831237 566.4178 
L 222.975941 559.463112 
L 231.265349 543.699557 
L 235.410053 535.610184 
L 239.554756 527.063586 
L 243.69946 517.838853 
L 247.844164 507.906372 
L 256.133572 486.500191 
L 260.278275 475.775056 
L 264.422979 464.631063 
L 268.567683 452.231259 
L 276.857091 426.425607 
L 289.291202 387.240843 
L 293.435906 373.408766 
L 297.58061 359.11761 
L 301.725314 345.40913 
L 314.159425 305.984649 
L 318.304129 293.656805 
L 330.73824 258.889789 
L 334.882944 248.147192 
L 339.027648 238.672989 
L 343.172352 230.581789 
L 347.317056 223.386026 
L 351.46176 216.697693 
L 355.606463 210.858144 
L 359.751167 205.745025 
L 363.895871 201.821052 
L 368.040575 199.27176 
L 372.185279 197.415171 
L 376.329982 195.814896 
L 380.474686 196.273271 
L 384.61939 198.91644 
L 388.764094 202.315783 
L 392.908798 206.089606 
L 397.053502 211.018934 
L 401.198205 218.633142 
L 409.487613 236.935733 
L 413.632317 245.357176 
L 417.777021 254.151255 
L 421.921725 264.887283 
L 434.355836 301.730602 
L 442.645244 328.767372 
L 446.789947 341.110987 
L 450.934651 353.940252 
L 459.224059 382.162585 
L 463.368763 396.389323 
L 467.513467 409.944216 
L 471.65817 422.864387 
L 479.947578 447.761433 
L 488.236986 471.904669 
L 492.381689 483.492271 
L 496.526393 494.047628 
L 508.960505 524.114259 
L 513.105209 533.044133 
L 521.394616 549.638551 
L 525.53932 557.097718 
L 529.684024 564.174697 
L 533.828728 570.609504 
L 537.973431 576.20853 
L 542.118135 581.126839 
L 546.262839 585.745314 
L 550.407543 590.58864 
L 554.552247 595.255086 
L 558.696951 599.324339 
L 562.841654 602.86832 
L 566.986358 606.016498 
L 571.131062 608.773402 
L 575.275766 611.353436 
L 579.42047 613.535161 
L 583.565174 613.920703 
L 587.709877 604.922798 
L 591.854581 595.203213 
L 595.999285 611.545191 
L 600.143989 626.356927 
L 604.288693 629.628155 
L 604.288693 629.628155 
" style="fill:none;"/>
   </g>
   <g id="line2d_18">
    <path clip-path="url(#p0eb52222a3)" d="M 65.600293 629.897751 
L 75.099712 629.80741 
L 84.599132 629.531819 
L 94.098551 628.946951 
L 98.848261 628.4885 
L 103.597971 627.893505 
L 108.34768 627.14719 
L 113.09739 626.240845 
L 117.8471 625.172474 
L 122.59681 623.945615 
L 127.346519 622.566048 
L 132.096229 621.036703 
L 136.845939 619.351679 
L 141.595649 617.490887 
L 146.345358 615.417063 
L 151.095068 613.076686 
L 155.844778 610.405618 
L 160.594487 607.339194 
L 165.344197 603.825239 
L 170.093907 599.837458 
L 174.843617 595.386179 
L 179.593326 590.523612 
L 184.343036 585.34181 
L 203.341875 563.961858 
L 208.091585 559.009706 
L 212.841295 554.309615 
L 222.340714 545.428255 
L 227.090424 540.997249 
L 231.840133 536.335711 
L 236.589843 531.229893 
L 241.339553 525.452541 
L 246.089263 518.777065 
L 250.838972 510.993497 
L 255.588682 501.926609 
L 260.338392 491.455681 
L 265.088102 479.534129 
L 269.837811 466.205841 
L 274.587521 451.614265 
L 279.337231 436.000381 
L 288.83665 403.049298 
L 293.58636 386.474413 
L 298.33607 370.316453 
L 303.085779 354.855039 
L 307.835489 340.266441 
L 312.585199 326.614512 
L 317.334909 313.864746 
L 322.084618 301.919408 
L 326.834328 290.665977 
L 331.584038 280.027021 
L 336.333748 269.998341 
L 341.083457 260.664736 
L 345.833167 252.188533 
L 350.582877 244.773666 
L 355.332587 238.615222 
L 360.082296 233.848717 
L 364.832006 230.51351 
L 369.581716 228.540514 
L 374.331425 227.767253 
L 379.081135 227.975508 
L 383.830845 228.940871 
L 388.580555 230.481099 
L 393.330264 232.491635 
L 398.079974 234.961251 
L 402.829684 237.966564 
L 407.579394 241.649447 
L 412.329103 246.184631 
L 417.078813 251.745547 
L 421.828523 258.475154 
L 426.578232 266.465906 
L 431.327942 275.750227 
L 436.077652 286.300661 
L 440.827362 298.037493 
L 445.577071 310.841116 
L 450.326781 324.566457 
L 455.076491 339.057061 
L 459.826201 354.156896 
L 469.32562 385.606747 
L 493.074169 465.818591 
L 497.823878 481.201411 
L 502.573588 496.076574 
L 507.323298 510.318958 
L 512.073008 523.811053 
L 516.822717 536.448316 
L 521.572427 548.143386 
L 526.322137 558.828918 
L 531.071847 568.459279 
L 535.821556 577.011615 
L 540.571266 584.486785 
L 545.320976 590.910314 
L 550.070686 596.333151 
L 554.820395 600.831629 
L 559.570105 604.505877 
L 564.319815 607.47602 
L 569.069524 609.875831 
L 573.819234 611.844063 
L 578.568944 613.514294 
L 588.068363 616.40877 
L 616.566622 624.590565 
L 621.316331 625.735769 
L 626.066041 626.734499 
L 630.815751 627.573017 
L 635.565461 628.250607 
L 640.31517 628.777575 
L 649.81459 629.455619 
L 659.314009 629.779047 
L 668.813429 629.893213 
L 668.813429 629.893213 
" style="fill:none;stroke:#28635d;stroke-linecap:round;stroke-width:1.5;"/>
   </g>
   <g id="patch_3">
    <path d="M 90 630 
L 90 86.4 
" style="fill:none;stroke:#262626;stroke-linecap:square;stroke-linejoin:miter;stroke-width:1.25;"/>
   </g>
   <g id="patch_4">
    <path d="M 648 630 
L 648 86.4 
" style="fill:none;stroke:#262626;stroke-linecap:square;stroke-linejoin:miter;stroke-width:1.25;"/>
   </g>
   <g id="patch_5">
    <path d="M 90 630 
L 648 630 
" style="fill:none;stroke:#262626;stroke-linecap:square;stroke-linejoin:miter;stroke-width:1.25;"/>
   </g>
   <g id="patch_6">
    <path d="M 90 86.4 
L 648 86.4 
" style="fill:none;stroke:#262626;stroke-linecap:square;stroke-linejoin:miter;stroke-width:1.25;"/>
   </g>
  </g>
 </g>
 <defs>
  <clipPath id="p0eb52222a3">
   <rect height="543.6" width="558" x="90" y="86.4"/>
  </clipPath>
 </defs>
</svg>
