<?xml version="1.0" encoding="utf-8" standalone="no"?>
<!DOCTYPE svg PUBLIC "-//W3C//DTD SVG 1.1//EN"
  "http://www.w3.org/Graphics/SVG/1.1/DTD/svg11.dtd">
<!-- Created with matplotlib (http://matplotlib.org/) -->
<svg height="504pt" version="1.1" viewBox="0 0 1296 504" width="1296pt" xmlns="http://www.w3.org/2000/svg" xmlns:xlink="http://www.w3.org/1999/xlink">
 <defs>
  <style type="text/css">
*{stroke-linecap:butt;stroke-linejoin:round;}
  </style>
 </defs>
 <g id="figure_1">
  <g id="patch_1">
   <path d="M 0 504 
L 1296 504 
L 1296 0 
L 0 0 
z
" style="fill:#ffffff;"/>
  </g>
  <g id="axes_1">
   <g id="patch_2">
    <path d="M 162 441 
L 1166.4 441 
L 1166.4 60.48 
L 162 60.48 
z
" style="fill:#ffffff;"/>
   </g>
   <g id="matplotlib.axis_1">
    <g id="xtick_1">
     <g id="line2d_1">
      <defs>
       <path d="M 0 0 
L 0 -6 
" id="m547fdc25a2" style="stroke:#262626;"/>
      </defs>
      <g>
       <use style="fill:#262626;stroke:#262626;" x="162.418152" xlink:href="#m547fdc25a2" y="441"/>
      </g>
     </g>
     <g id="text_1">
      <!-- 800 -->
      <defs>
       <path d="M 17.671875 38.8125 
Q 12.203125 40.828125 9.5625 44.53125 
Q 6.9375 48.25 6.9375 53.421875 
Q 6.9375 61.234375 12.546875 66.546875 
Q 18.171875 71.875 27.484375 71.875 
Q 36.859375 71.875 42.578125 66.421875 
Q 48.296875 60.984375 48.296875 53.171875 
Q 48.296875 48.1875 45.671875 44.5 
Q 43.0625 40.828125 37.75 38.8125 
Q 44.34375 36.671875 47.78125 31.875 
Q 51.21875 27.09375 51.21875 20.453125 
Q 51.21875 11.28125 44.71875 5.03125 
Q 38.234375 -1.21875 27.640625 -1.21875 
Q 17.046875 -1.21875 10.546875 5.046875 
Q 4.046875 11.328125 4.046875 20.703125 
Q 4.046875 27.6875 7.59375 32.390625 
Q 11.140625 37.109375 17.671875 38.8125 
z
M 15.921875 53.71875 
Q 15.921875 48.640625 19.1875 45.40625 
Q 22.46875 42.1875 27.6875 42.1875 
Q 32.765625 42.1875 36.015625 45.375 
Q 39.265625 48.578125 39.265625 53.21875 
Q 39.265625 58.0625 35.90625 61.359375 
Q 32.5625 64.65625 27.59375 64.65625 
Q 22.5625 64.65625 19.234375 61.421875 
Q 15.921875 58.203125 15.921875 53.71875 
z
M 13.09375 20.65625 
Q 13.09375 16.890625 14.875 13.375 
Q 16.65625 9.859375 20.171875 7.921875 
Q 23.6875 6 27.734375 6 
Q 34.03125 6 38.125 10.046875 
Q 42.234375 14.109375 42.234375 20.359375 
Q 42.234375 26.703125 38.015625 30.859375 
Q 33.796875 35.015625 27.4375 35.015625 
Q 21.234375 35.015625 17.15625 30.90625 
Q 13.09375 26.8125 13.09375 20.65625 
z
" id="ArialMT-38"/>
       <path d="M 4.15625 35.296875 
Q 4.15625 48 6.765625 55.734375 
Q 9.375 63.484375 14.515625 67.671875 
Q 19.671875 71.875 27.484375 71.875 
Q 33.25 71.875 37.59375 69.546875 
Q 41.9375 67.234375 44.765625 62.859375 
Q 47.609375 58.5 49.21875 52.21875 
Q 50.828125 45.953125 50.828125 35.296875 
Q 50.828125 22.703125 48.234375 14.96875 
Q 45.65625 7.234375 40.5 3 
Q 35.359375 -1.21875 27.484375 -1.21875 
Q 17.140625 -1.21875 11.234375 6.203125 
Q 4.15625 15.140625 4.15625 35.296875 
z
M 13.1875 35.296875 
Q 13.1875 17.671875 17.3125 11.828125 
Q 21.4375 6 27.484375 6 
Q 33.546875 6 37.671875 11.859375 
Q 41.796875 17.71875 41.796875 35.296875 
Q 41.796875 52.984375 37.671875 58.78125 
Q 33.546875 64.59375 27.390625 64.59375 
Q 21.34375 64.59375 17.71875 59.46875 
Q 13.1875 52.9375 13.1875 35.296875 
z
" id="ArialMT-30"/>
      </defs>
      <g style="fill:#262626;" transform="translate(133.22323 473.052344)scale(0.35 -0.35)">
       <use xlink:href="#ArialMT-38"/>
       <use x="55.615234" xlink:href="#ArialMT-30"/>
       <use x="111.230469" xlink:href="#ArialMT-30"/>
      </g>
     </g>
    </g>
    <g id="xtick_2">
     <g id="line2d_2">
      <g>
       <use style="fill:#262626;stroke:#262626;" x="329.678768" xlink:href="#m547fdc25a2" y="441"/>
      </g>
     </g>
     <g id="text_2">
      <!-- 1000 -->
      <defs>
       <path d="M 37.25 0 
L 28.46875 0 
L 28.46875 56 
Q 25.296875 52.984375 20.140625 49.953125 
Q 14.984375 46.921875 10.890625 45.40625 
L 10.890625 53.90625 
Q 18.265625 57.375 23.78125 62.296875 
Q 29.296875 67.234375 31.59375 71.875 
L 37.25 71.875 
z
" id="ArialMT-31"/>
      </defs>
      <g style="fill:#262626;" transform="translate(290.752205 473.052344)scale(0.35 -0.35)">
       <use xlink:href="#ArialMT-31"/>
       <use x="55.615234" xlink:href="#ArialMT-30"/>
       <use x="111.230469" xlink:href="#ArialMT-30"/>
       <use x="166.845703" xlink:href="#ArialMT-30"/>
      </g>
     </g>
    </g>
    <g id="xtick_3">
     <g id="line2d_3">
      <g>
       <use style="fill:#262626;stroke:#262626;" x="496.939384" xlink:href="#m547fdc25a2" y="441"/>
      </g>
     </g>
     <g id="text_3">
      <!-- 1200 -->
      <defs>
       <path d="M 50.34375 8.453125 
L 50.34375 0 
L 3.03125 0 
Q 2.9375 3.171875 4.046875 6.109375 
Q 5.859375 10.9375 9.828125 15.625 
Q 13.8125 20.3125 21.34375 26.46875 
Q 33.015625 36.03125 37.109375 41.625 
Q 41.21875 47.21875 41.21875 52.203125 
Q 41.21875 57.421875 37.46875 61 
Q 33.734375 64.59375 27.734375 64.59375 
Q 21.390625 64.59375 17.578125 60.78125 
Q 13.765625 56.984375 13.71875 50.25 
L 4.6875 51.171875 
Q 5.609375 61.28125 11.65625 66.578125 
Q 17.71875 71.875 27.9375 71.875 
Q 38.234375 71.875 44.234375 66.15625 
Q 50.25 60.453125 50.25 52 
Q 50.25 47.703125 48.484375 43.546875 
Q 46.734375 39.40625 42.65625 34.8125 
Q 38.578125 30.21875 29.109375 22.21875 
Q 21.1875 15.578125 18.9375 13.203125 
Q 16.703125 10.84375 15.234375 8.453125 
z
" id="ArialMT-32"/>
      </defs>
      <g style="fill:#262626;" transform="translate(458.012821 473.052344)scale(0.35 -0.35)">
       <use xlink:href="#ArialMT-31"/>
       <use x="55.615234" xlink:href="#ArialMT-32"/>
       <use x="111.230469" xlink:href="#ArialMT-30"/>
       <use x="166.845703" xlink:href="#ArialMT-30"/>
      </g>
     </g>
    </g>
    <g id="xtick_4">
     <g id="line2d_4">
      <g>
       <use style="fill:#262626;stroke:#262626;" x="664.2" xlink:href="#m547fdc25a2" y="441"/>
      </g>
     </g>
     <g id="text_4">
      <!-- 1400 -->
      <defs>
       <path d="M 32.328125 0 
L 32.328125 17.140625 
L 1.265625 17.140625 
L 1.265625 25.203125 
L 33.9375 71.578125 
L 41.109375 71.578125 
L 41.109375 25.203125 
L 50.78125 25.203125 
L 50.78125 17.140625 
L 41.109375 17.140625 
L 41.109375 0 
z
M 32.328125 25.203125 
L 32.328125 57.46875 
L 9.90625 25.203125 
z
" id="ArialMT-34"/>
      </defs>
      <g style="fill:#262626;" transform="translate(625.273438 473.052344)scale(0.35 -0.35)">
       <use xlink:href="#ArialMT-31"/>
       <use x="55.615234" xlink:href="#ArialMT-34"/>
       <use x="111.230469" xlink:href="#ArialMT-30"/>
       <use x="166.845703" xlink:href="#ArialMT-30"/>
      </g>
     </g>
    </g>
    <g id="xtick_5">
     <g id="line2d_5">
      <g>
       <use style="fill:#262626;stroke:#262626;" x="831.460616" xlink:href="#m547fdc25a2" y="441"/>
      </g>
     </g>
     <g id="text_5">
      <!-- 1600 -->
      <defs>
       <path d="M 49.75 54.046875 
L 41.015625 53.375 
Q 39.84375 58.546875 37.703125 60.890625 
Q 34.125 64.65625 28.90625 64.65625 
Q 24.703125 64.65625 21.53125 62.3125 
Q 17.390625 59.28125 14.984375 53.46875 
Q 12.59375 47.65625 12.5 36.921875 
Q 15.671875 41.75 20.265625 44.09375 
Q 24.859375 46.4375 29.890625 46.4375 
Q 38.671875 46.4375 44.84375 39.96875 
Q 51.03125 33.5 51.03125 23.25 
Q 51.03125 16.5 48.125 10.71875 
Q 45.21875 4.9375 40.140625 1.859375 
Q 35.0625 -1.21875 28.609375 -1.21875 
Q 17.625 -1.21875 10.6875 6.859375 
Q 3.765625 14.9375 3.765625 33.5 
Q 3.765625 54.25 11.421875 63.671875 
Q 18.109375 71.875 29.4375 71.875 
Q 37.890625 71.875 43.28125 67.140625 
Q 48.6875 62.40625 49.75 54.046875 
z
M 13.875 23.1875 
Q 13.875 18.65625 15.796875 14.5 
Q 17.71875 10.359375 21.1875 8.171875 
Q 24.65625 6 28.46875 6 
Q 34.03125 6 38.03125 10.484375 
Q 42.046875 14.984375 42.046875 22.703125 
Q 42.046875 30.125 38.078125 34.390625 
Q 34.125 38.671875 28.125 38.671875 
Q 22.171875 38.671875 18.015625 34.390625 
Q 13.875 30.125 13.875 23.1875 
z
" id="ArialMT-36"/>
      </defs>
      <g style="fill:#262626;" transform="translate(792.534054 473.052344)scale(0.35 -0.35)">
       <use xlink:href="#ArialMT-31"/>
       <use x="55.615234" xlink:href="#ArialMT-36"/>
       <use x="111.230469" xlink:href="#ArialMT-30"/>
       <use x="166.845703" xlink:href="#ArialMT-30"/>
      </g>
     </g>
    </g>
    <g id="xtick_6">
     <g id="line2d_6">
      <g>
       <use style="fill:#262626;stroke:#262626;" x="998.721232" xlink:href="#m547fdc25a2" y="441"/>
      </g>
     </g>
     <g id="text_6">
      <!-- 1800 -->
      <g style="fill:#262626;" transform="translate(959.79467 473.052344)scale(0.35 -0.35)">
       <use xlink:href="#ArialMT-31"/>
       <use x="55.615234" xlink:href="#ArialMT-38"/>
       <use x="111.230469" xlink:href="#ArialMT-30"/>
       <use x="166.845703" xlink:href="#ArialMT-30"/>
      </g>
     </g>
    </g>
    <g id="xtick_7">
     <g id="line2d_7">
      <g>
       <use style="fill:#262626;stroke:#262626;" x="1165.981848" xlink:href="#m547fdc25a2" y="441"/>
      </g>
     </g>
     <g id="text_7">
      <!-- 2000 -->
      <g style="fill:#262626;" transform="translate(1127.055286 473.052344)scale(0.35 -0.35)">
       <use xlink:href="#ArialMT-32"/>
       <use x="55.615234" xlink:href="#ArialMT-30"/>
       <use x="111.230469" xlink:href="#ArialMT-30"/>
       <use x="166.845703" xlink:href="#ArialMT-30"/>
      </g>
     </g>
    </g>
   </g>
   <g id="matplotlib.axis_2">
    <g id="ytick_1">
     <g id="line2d_8">
      <defs>
       <path d="M 0 0 
L 6 0 
" id="mb8f77bf145" style="stroke:#262626;"/>
      </defs>
      <g>
       <use style="fill:#262626;stroke:#262626;" x="162" xlink:href="#mb8f77bf145" y="441"/>
      </g>
     </g>
     <g id="text_8">
      <!-- 0 -->
      <g style="fill:#262626;" transform="translate(135.536719 453.526172)scale(0.35 -0.35)">
       <use xlink:href="#ArialMT-30"/>
      </g>
     </g>
    </g>
    <g id="ytick_2">
     <g id="line2d_9">
      <g>
       <use style="fill:#262626;stroke:#262626;" x="162" xlink:href="#mb8f77bf145" y="364.896"/>
      </g>
     </g>
     <g id="text_9">
      <!-- 1 -->
      <g style="fill:#262626;" transform="translate(135.536719 377.422172)scale(0.35 -0.35)">
       <use xlink:href="#ArialMT-31"/>
      </g>
     </g>
    </g>
    <g id="ytick_3">
     <g id="line2d_10">
      <g>
       <use style="fill:#262626;stroke:#262626;" x="162" xlink:href="#mb8f77bf145" y="288.792"/>
      </g>
     </g>
     <g id="text_10">
      <!-- 2 -->
      <g style="fill:#262626;" transform="translate(135.536719 301.318172)scale(0.35 -0.35)">
       <use xlink:href="#ArialMT-32"/>
      </g>
     </g>
    </g>
    <g id="ytick_4">
     <g id="line2d_11">
      <g>
       <use style="fill:#262626;stroke:#262626;" x="162" xlink:href="#mb8f77bf145" y="212.688"/>
      </g>
     </g>
     <g id="text_11">
      <!-- 3 -->
      <defs>
       <path d="M 4.203125 18.890625 
L 12.984375 20.0625 
Q 14.5 12.59375 18.140625 9.296875 
Q 21.78125 6 27 6 
Q 33.203125 6 37.46875 10.296875 
Q 41.75 14.59375 41.75 20.953125 
Q 41.75 27 37.796875 30.921875 
Q 33.84375 34.859375 27.734375 34.859375 
Q 25.25 34.859375 21.53125 33.890625 
L 22.515625 41.609375 
Q 23.390625 41.5 23.921875 41.5 
Q 29.546875 41.5 34.03125 44.421875 
Q 38.53125 47.359375 38.53125 53.46875 
Q 38.53125 58.296875 35.25 61.46875 
Q 31.984375 64.65625 26.8125 64.65625 
Q 21.6875 64.65625 18.265625 61.421875 
Q 14.84375 58.203125 13.875 51.765625 
L 5.078125 53.328125 
Q 6.6875 62.15625 12.390625 67.015625 
Q 18.109375 71.875 26.609375 71.875 
Q 32.46875 71.875 37.390625 69.359375 
Q 42.328125 66.84375 44.9375 62.5 
Q 47.5625 58.15625 47.5625 53.265625 
Q 47.5625 48.640625 45.0625 44.828125 
Q 42.578125 41.015625 37.703125 38.765625 
Q 44.046875 37.3125 47.5625 32.6875 
Q 51.078125 28.078125 51.078125 21.140625 
Q 51.078125 11.765625 44.234375 5.25 
Q 37.40625 -1.265625 26.953125 -1.265625 
Q 17.53125 -1.265625 11.296875 4.34375 
Q 5.078125 9.96875 4.203125 18.890625 
z
" id="ArialMT-33"/>
      </defs>
      <g style="fill:#262626;" transform="translate(135.536719 225.214172)scale(0.35 -0.35)">
       <use xlink:href="#ArialMT-33"/>
      </g>
     </g>
    </g>
    <g id="ytick_5">
     <g id="line2d_12">
      <g>
       <use style="fill:#262626;stroke:#262626;" x="162" xlink:href="#mb8f77bf145" y="136.584"/>
      </g>
     </g>
     <g id="text_12">
      <!-- 4 -->
      <g style="fill:#262626;" transform="translate(135.536719 149.110172)scale(0.35 -0.35)">
       <use xlink:href="#ArialMT-34"/>
      </g>
     </g>
    </g>
    <g id="ytick_6">
     <g id="line2d_13">
      <g>
       <use style="fill:#262626;stroke:#262626;" x="162" xlink:href="#mb8f77bf145" y="60.48"/>
      </g>
     </g>
     <g id="text_13">
      <!-- 5 -->
      <defs>
       <path d="M 4.15625 18.75 
L 13.375 19.53125 
Q 14.40625 12.796875 18.140625 9.390625 
Q 21.875 6 27.15625 6 
Q 33.5 6 37.890625 10.78125 
Q 42.28125 15.578125 42.28125 23.484375 
Q 42.28125 31 38.0625 35.34375 
Q 33.84375 39.703125 27 39.703125 
Q 22.75 39.703125 19.328125 37.765625 
Q 15.921875 35.84375 13.96875 32.765625 
L 5.71875 33.84375 
L 12.640625 70.609375 
L 48.25 70.609375 
L 48.25 62.203125 
L 19.671875 62.203125 
L 15.828125 42.96875 
Q 22.265625 47.46875 29.34375 47.46875 
Q 38.71875 47.46875 45.15625 40.96875 
Q 51.609375 34.46875 51.609375 24.265625 
Q 51.609375 14.546875 45.953125 7.46875 
Q 39.0625 -1.21875 27.15625 -1.21875 
Q 17.390625 -1.21875 11.203125 4.25 
Q 5.03125 9.71875 4.15625 18.75 
z
" id="ArialMT-35"/>
      </defs>
      <g style="fill:#262626;" transform="translate(135.536719 73.006172)scale(0.35 -0.35)">
       <use xlink:href="#ArialMT-35"/>
      </g>
     </g>
    </g>
   </g>
   <g id="PolyCollection_1">
    <defs>
     <path d="M 162.418152 -443.52 
L 162.418152 -424.494 
L 496.939384 -424.494 
L 496.939384 -443.52 
L 496.939384 -443.52 
L 162.418152 -443.52 
z
" id="m3c72de140c" style="stroke:#85531e;stroke-opacity:0.5;stroke-width:0.3;"/>
    </defs>
    <g clip-path="url(#p3eb2838a6e)">
     <use style="fill:#85531e;fill-opacity:0.5;stroke:#85531e;stroke-opacity:0.5;stroke-width:0.3;" x="0" xlink:href="#m3c72de140c" y="504"/>
    </g>
   </g>
   <g id="PolyCollection_2">
    <defs>
     <path d="M 831.460616 -443.52 
L 831.460616 -424.494 
L 1165.981848 -424.494 
L 1165.981848 -443.52 
L 1165.981848 -443.52 
L 831.460616 -443.52 
z
" id="m8c033271e5" style="stroke:#28635d;stroke-opacity:0.5;stroke-width:0.3;"/>
    </defs>
    <g clip-path="url(#p3eb2838a6e)">
     <use style="fill:#28635d;fill-opacity:0.5;stroke:#28635d;stroke-opacity:0.5;stroke-width:0.3;" x="0" xlink:href="#m8c033271e5" y="504"/>
    </g>
   </g>
   <g id="line2d_14">
    <path clip-path="url(#p3eb2838a6e)" d="M 162.418152 239.095017 
L 163.254455 245.645038 
L 164.090758 249.244981 
L 164.927061 175.510929 
L 165.763364 247.543405 
L 166.599667 266.701429 
L 167.43597 260.50714 
L 168.272273 308.135843 
L 169.108576 276.876059 
L 169.944879 439.840713 
L 170.781182 266.731641 
L 171.617485 204.69766 
L 172.453789 184.463797 
L 173.290092 279.589017 
L 174.126395 253.378718 
L 174.962698 182.257876 
L 175.799001 246.65752 
L 176.635304 319.883632 
L 177.471607 230.659456 
L 178.30791 344.674041 
L 179.144213 194.667504 
L 179.980516 105.670949 
L 180.816819 149.042367 
L 181.653122 312.972592 
L 183.325729 240.711785 
L 184.162032 230.59741 
L 184.998335 255.744378 
L 185.834638 212.15839 
L 186.670941 235.913916 
L 187.507244 301.376702 
L 188.343547 204.370986 
L 189.17985 224.454105 
L 190.016153 269.976563 
L 190.852456 225.344234 
L 191.688759 266.236217 
L 192.525062 258.948366 
L 193.361366 290.250212 
L 194.197669 250.098153 
L 195.033972 339.067892 
L 195.870275 259.924851 
L 196.706578 326.467212 
L 197.542881 196.211561 
L 198.379184 180.769613 
L 199.215487 293.950245 
L 200.05179 271.820549 
L 200.888093 180.956152 
L 201.724396 367.690082 
L 202.560699 265.930149 
L 203.397002 239.49254 
L 204.233306 269.352876 
L 205.069609 255.400946 
L 205.905912 249.013696 
L 206.742215 227.436012 
L 207.578518 265.200192 
L 209.251124 246.724964 
L 210.087427 267.858734 
L 210.92373 216.777896 
L 211.760033 278.213528 
L 212.596336 281.343769 
L 213.432639 264.925162 
L 214.268943 228.163003 
L 215.105246 227.008315 
L 215.941549 260.869048 
L 216.777852 411.436454 
L 217.614155 242.541297 
L 218.450458 361.372086 
L 219.286761 352.703382 
L 220.123064 251.250429 
L 220.959367 225.963582 
L 221.79567 322.391337 
L 222.631973 337.551309 
L 223.468276 266.214615 
L 224.30458 261.690626 
L 225.140883 272.011811 
L 225.977186 244.144539 
L 226.813489 289.116047 
L 227.649792 247.414117 
L 228.486095 227.262345 
L 229.322398 309.446041 
L 230.158701 276.02226 
L 230.995004 264.025282 
L 231.831307 318.489994 
L 232.66761 309.488277 
L 233.503913 212.774395 
L 234.340216 273.626969 
L 235.17652 272.641132 
L 236.012823 266.055297 
L 236.849126 286.571386 
L 237.685429 284.914393 
L 238.521732 199.872679 
L 239.358035 189.317691 
L 240.194338 293.448512 
L 241.030641 196.22364 
L 241.866944 288.883857 
L 243.53955 178.594872 
L 244.375853 218.916893 
L 245.212157 234.595951 
L 246.04846 348.484929 
L 246.884763 228.277591 
L 247.721066 274.92013 
L 248.557369 286.446822 
L 249.393672 224.832139 
L 250.229975 231.557438 
L 251.066278 290.799717 
L 251.902581 302.100202 
L 252.738884 280.989752 
L 253.575187 273.324596 
L 254.41149 285.887233 
L 255.247794 217.131558 
L 256.084097 260.240144 
L 256.9204 360.740506 
L 257.756703 247.36954 
L 258.593006 247.413634 
L 259.429309 260.223577 
L 260.265612 230.014729 
L 261.101915 306.407866 
L 261.938218 311.607365 
L 263.610824 273.80122 
L 264.447127 357.067636 
L 265.28343 297.732017 
L 266.119734 350.095444 
L 266.956037 179.742676 
L 267.79234 191.599394 
L 268.628643 294.614988 
L 269.464946 304.3095 
L 270.301249 260.776761 
L 271.137552 365.779557 
L 271.973855 271.561833 
L 272.810158 259.002921 
L 273.646461 258.488783 
L 274.482764 226.596947 
L 275.319067 282.020594 
L 276.155371 250.851875 
L 276.991674 178.14387 
L 277.827977 264.999266 
L 278.66428 289.620282 
L 279.500583 233.294458 
L 280.336886 117.345588 
L 281.173189 337.177954 
L 282.009492 301.646829 
L 282.845795 273.304871 
L 283.682098 279.907939 
L 284.518401 273.12679 
L 285.354704 253.568156 
L 286.191007 290.854976 
L 287.027311 266.73441 
L 287.863614 261.420926 
L 288.699917 228.804566 
L 289.53622 335.530908 
L 290.372523 247.581187 
L 291.208826 350.736602 
L 292.045129 277.961255 
L 292.881432 223.67246 
L 293.717735 408.415 
L 294.554038 277.532106 
L 295.390341 212.546808 
L 296.226644 229.012087 
L 297.062948 336.232587 
L 297.899251 255.536742 
L 298.735554 227.045761 
L 299.571857 293.524873 
L 300.40816 284.671486 
L 301.244463 219.568851 
L 302.080766 318.520622 
L 302.917069 187.221612 
L 303.753372 366.80485 
L 304.589675 196.685108 
L 305.425978 271.233337 
L 306.262281 249.001601 
L 307.098585 174.279141 
L 307.934888 187.332109 
L 308.771191 342.079316 
L 309.607494 286.642237 
L 310.443797 241.445308 
L 311.2801 260.140378 
L 312.116403 375.750007 
L 312.952706 330.028083 
L 313.789009 414.292389 
L 314.625312 200.625683 
L 315.461615 313.211968 
L 316.297918 255.487325 
L 317.134221 226.73099 
L 317.970525 248.834777 
L 318.806828 267.368566 
L 319.643131 265.428616 
L 320.479434 219.151855 
L 321.315737 333.329331 
L 322.15204 274.922099 
L 322.988343 278.316135 
L 323.824646 275.446976 
L 324.660949 276.690006 
L 325.497252 367.798262 
L 326.333555 229.515738 
L 327.169858 306.255604 
L 328.006162 278.008145 
L 328.842465 265.928265 
L 329.678768 236.79249 
L 330.515071 323.601 
L 331.351374 218.373492 
L 332.187677 297.008213 
L 333.02398 201.91143 
L 333.860283 369.935069 
L 334.696586 222.078366 
L 335.532889 214.152156 
L 337.205495 258.101128 
L 338.041799 242.35655 
L 339.714405 332.52488 
L 340.550708 265.156014 
L 341.387011 305.851708 
L 342.223314 229.156284 
L 343.059617 228.754289 
L 343.89592 213.130636 
L 344.732223 226.822997 
L 345.568526 244.720944 
L 346.404829 226.755926 
L 347.241132 302.317102 
L 348.077435 317.019392 
L 348.913739 111.584008 
L 350.586345 341.802202 
L 351.422648 269.426066 
L 352.258951 246.771729 
L 353.095254 247.111376 
L 353.931557 276.934955 
L 354.76786 221.611167 
L 355.604163 206.111916 
L 356.440466 299.906161 
L 357.276769 275.747929 
L 358.113072 272.656113 
L 358.949376 362.195366 
L 359.785679 252.616872 
L 360.621982 289.502159 
L 361.458285 235.374917 
L 362.294588 333.796498 
L 363.130891 303.352957 
L 363.967194 243.357924 
L 364.803497 214.597214 
L 365.6398 322.87612 
L 366.476103 282.310268 
L 367.312406 211.835276 
L 368.148709 284.824145 
L 368.985012 282.421916 
L 369.821316 311.809047 
L 370.657619 261.999939 
L 371.493922 245.113749 
L 372.330225 184.990646 
L 373.166528 244.329238 
L 374.002831 360.223228 
L 374.839134 188.648293 
L 375.675437 314.775994 
L 376.51174 269.046209 
L 377.348043 213.975444 
L 378.184346 243.26136 
L 379.020649 354.948605 
L 379.856953 271.98563 
L 380.693256 155.598593 
L 381.529559 309.299286 
L 382.365862 251.244512 
L 383.202165 209.23723 
L 384.038468 232.447307 
L 384.874771 279.832275 
L 385.711074 308.513181 
L 386.547377 284.848271 
L 388.219983 321.224982 
L 389.056286 244.310848 
L 389.89259 297.403481 
L 390.728893 279.266338 
L 391.565196 298.341776 
L 393.237802 186.794138 
L 394.074105 249.215364 
L 394.910408 279.555307 
L 395.746711 171.744199 
L 396.583014 215.950604 
L 397.419317 217.920547 
L 398.25562 237.67171 
L 399.091923 270.168838 
L 399.928226 202.175732 
L 400.76453 238.924595 
L 401.600833 225.651076 
L 402.437136 166.2752 
L 403.273439 238.024151 
L 404.109742 245.548911 
L 404.946045 246.451057 
L 405.782348 225.731383 
L 406.618651 222.514643 
L 407.454954 312.254397 
L 408.291257 213.346777 
L 409.12756 252.979772 
L 409.963863 222.377323 
L 410.800167 238.061868 
L 411.63647 368.360315 
L 412.472773 229.446855 
L 413.309076 182.193428 
L 414.145379 302.577187 
L 414.981682 264.471451 
L 415.817985 308.23662 
L 416.654288 237.009737 
L 417.490591 181.339335 
L 418.326894 199.540498 
L 419.163197 253.092412 
L 419.9995 281.124205 
L 421.672107 236.383034 
L 422.50841 238.788301 
L 423.344713 236.565609 
L 424.181016 255.130768 
L 425.017319 281.830123 
L 425.853622 288.593075 
L 426.689925 155.158957 
L 427.526228 238.093191 
L 428.362531 258.651751 
L 429.198834 231.235801 
L 430.035137 242.837956 
L 430.87144 329.430821 
L 431.707744 147.342988 
L 432.544047 317.038632 
L 433.38035 267.999587 
L 434.216653 184.98822 
L 435.052956 441 
L 436.725562 166.385284 
L 438.398168 300.470724 
L 439.234471 272.786507 
L 440.070774 349.708171 
L 440.907077 332.716876 
L 441.743381 265.059364 
L 442.579684 304.931369 
L 443.415987 252.670665 
L 444.25229 253.781325 
L 445.088593 217.302052 
L 445.924896 227.547317 
L 446.761199 333.903037 
L 447.597502 273.55495 
L 448.433805 278.767314 
L 449.270108 264.752993 
L 450.106411 260.690609 
L 451.779017 330.689984 
L 452.615321 251.995698 
L 453.451624 331.323999 
L 454.287927 200.988063 
L 455.12423 307.822063 
L 455.960533 325.260514 
L 456.796836 237.850546 
L 457.633139 275.035351 
L 458.469442 285.404003 
L 459.305745 261.382211 
L 460.142048 311.528771 
L 460.978351 277.133455 
L 461.814654 351.285001 
L 462.650958 210.078198 
L 463.487261 229.859504 
L 464.323564 272.698215 
L 465.159867 283.398651 
L 465.99617 184.585317 
L 466.832473 312.892003 
L 467.668776 143.34347 
L 468.505079 195.365143 
L 469.341382 182.165977 
L 470.177685 284.506495 
L 471.013988 222.452153 
L 471.850291 345.009678 
L 472.686595 269.662626 
L 473.522898 277.23439 
L 474.359201 219.021777 
L 475.195504 301.900002 
L 476.031807 296.266744 
L 476.86811 325.795573 
L 477.704413 329.785609 
L 478.540716 203.660628 
L 479.377019 269.167975 
L 480.213322 309.784977 
L 481.049625 155.989657 
L 482.722231 363.813918 
L 483.558535 210.514498 
L 484.394838 295.949946 
L 485.231141 266.133141 
L 486.067444 287.247235 
L 486.903747 217.647725 
L 487.74005 269.908507 
L 488.576353 230.719355 
L 489.412656 294.970011 
L 490.248959 240.410647 
L 491.085262 220.524525 
L 491.921565 296.085923 
L 492.757868 114.962881 
L 493.594172 309.526641 
L 494.430475 211.493871 
L 495.266778 268.677137 
L 496.103081 298.453214 
L 496.939384 201.076539 
L 497.775687 285.576322 
L 498.61199 230.977376 
L 499.448293 212.933774 
L 500.284596 225.65494 
L 501.120899 243.243022 
L 501.957202 327.920339 
L 502.793505 232.78395 
L 503.629808 297.768714 
L 504.466112 237.523345 
L 505.302415 275.231717 
L 506.138718 241.063383 
L 506.975021 231.679258 
L 507.811324 340.244085 
L 508.647627 220.652763 
L 509.48393 286.17056 
L 510.320233 263.847534 
L 511.156536 385.480184 
L 511.992839 368.562506 
L 512.829142 190.774797 
L 513.665445 226.79385 
L 514.501749 278.429097 
L 515.338052 255.885547 
L 516.174355 260.418933 
L 517.010658 231.039263 
L 517.846961 228.062536 
L 518.683264 228.695873 
L 519.519567 425.731993 
L 520.35587 165.660111 
L 521.192173 177.983314 
L 522.028476 358.315012 
L 522.864779 306.323653 
L 523.701082 229.408501 
L 524.537386 264.527188 
L 526.209992 273.478136 
L 527.046295 336.648476 
L 527.882598 348.344406 
L 528.718901 206.451744 
L 529.555204 233.005708 
L 530.391507 269.775815 
L 531.22781 230.828071 
L 532.064113 272.649916 
L 532.900416 259.53954 
L 533.736719 288.888997 
L 534.573022 288.075874 
L 535.409326 253.472359 
L 536.245629 261.419562 
L 537.081932 180.734926 
L 537.918235 187.218682 
L 538.754538 332.386424 
L 539.590841 295.584625 
L 540.427144 217.803647 
L 541.263447 260.446184 
L 542.09975 341.52404 
L 542.936053 245.509609 
L 543.772356 246.646026 
L 544.608659 288.758986 
L 545.444963 363.241787 
L 546.281266 139.198049 
L 547.117569 252.794597 
L 547.953872 234.055497 
L 548.790175 210.856161 
L 550.462781 326.235765 
L 551.299084 298.354273 
L 552.135387 227.67826 
L 552.97169 206.400855 
L 554.644296 252.989788 
L 555.4806 219.418473 
L 556.316903 296.694789 
L 557.153206 250.635875 
L 557.989509 309.27197 
L 558.825812 235.508371 
L 559.662115 262.836025 
L 560.498418 309.450066 
L 561.334721 231.050067 
L 562.171024 296.20721 
L 563.007327 306.063707 
L 563.84363 211.392149 
L 564.679933 267.708081 
L 565.516236 227.092282 
L 566.35254 204.25909 
L 568.025146 342.515694 
L 568.861449 227.649436 
L 569.697752 253.5436 
L 570.534055 315.62134 
L 571.370358 247.453218 
L 572.206661 242.786601 
L 573.042964 172.304487 
L 573.879267 359.839373 
L 574.71557 254.522408 
L 575.551873 253.963029 
L 576.388177 243.768215 
L 577.22448 360.120717 
L 578.897086 253.23367 
L 579.733389 321.101914 
L 580.569692 275.286694 
L 581.405995 242.687051 
L 582.242298 199.187877 
L 583.078601 215.097166 
L 583.914904 251.572354 
L 584.751207 204.934776 
L 585.58751 185.317244 
L 586.423813 265.233895 
L 587.260117 247.389996 
L 588.09642 314.164618 
L 588.932723 233.320919 
L 589.769026 227.887446 
L 590.605329 241.144397 
L 591.441632 184.925977 
L 592.277935 160.225987 
L 593.114238 335.790762 
L 593.950541 346.55997 
L 594.786844 232.498435 
L 595.623147 210.372135 
L 596.45945 241.716032 
L 597.295754 231.392687 
L 598.132057 191.677675 
L 598.96836 208.713798 
L 599.804663 276.857324 
L 600.640966 305.789922 
L 601.477269 249.062187 
L 602.313572 242.616205 
L 603.149875 136.776084 
L 603.986178 254.233306 
L 604.822481 303.238489 
L 605.658784 182.88862 
L 606.495087 148.048982 
L 607.331391 178.801338 
L 608.167694 191.044114 
L 609.003997 244.817091 
L 609.8403 323.989787 
L 610.676603 303.953635 
L 611.512906 159.833575 
L 612.349209 310.178931 
L 613.185512 233.539163 
L 614.021815 242.965272 
L 614.858118 210.159174 
L 615.694421 223.717934 
L 616.530724 221.043313 
L 617.367027 242.328601 
L 618.203331 233.897981 
L 619.039634 186.649086 
L 619.875937 270.446081 
L 620.71224 235.543133 
L 621.548543 167.342718 
L 622.384846 295.151032 
L 623.221149 363.200806 
L 624.057452 255.055315 
L 624.893755 212.443731 
L 625.730058 246.041251 
L 626.566361 274.271582 
L 627.402664 199.308438 
L 628.238968 192.948222 
L 629.075271 343.548254 
L 629.911574 169.402712 
L 630.747877 302.818912 
L 631.58418 325.139931 
L 632.420483 305.457205 
L 633.256786 239.884635 
L 634.093089 260.848935 
L 634.929392 321.050805 
L 635.765695 156.051285 
L 636.601998 211.346521 
L 637.438301 185.902307 
L 638.274604 295.458869 
L 639.110908 234.080745 
L 639.947211 312.922883 
L 640.783514 211.857938 
L 641.619817 166.508578 
L 642.45612 152.040022 
L 643.292423 273.386212 
L 644.128726 243.050539 
L 644.965029 365.841733 
L 645.801332 215.053152 
L 646.637635 353.49832 
L 647.473938 214.969182 
L 648.310241 227.139756 
L 649.146545 284.784262 
L 649.982848 221.457032 
L 650.819151 266.377168 
L 651.655454 169.550555 
L 652.491757 232.587304 
L 653.32806 252.688148 
L 654.164363 255.799236 
L 655.000666 238.417822 
L 655.836969 331.358624 
L 656.673272 283.81484 
L 657.509575 215.67471 
L 658.345878 240.399516 
L 659.182182 171.109954 
L 660.018485 273.227839 
L 660.854788 276.153702 
L 661.691091 302.893713 
L 662.527394 243.069017 
L 663.363697 290.244395 
L 664.2 238.529598 
L 665.036303 222.9893 
L 665.872606 296.813978 
L 666.708909 265.618293 
L 667.545212 185.193369 
L 668.381515 241.19116 
L 669.217818 237.857194 
L 670.054122 350.234944 
L 670.890425 241.397315 
L 671.726728 230.54002 
L 672.563031 303.860059 
L 673.399334 212.297091 
L 674.235637 219.532012 
L 675.07194 376.606305 
L 675.908243 209.044263 
L 676.744546 210.434672 
L 677.580849 272.743647 
L 679.253455 203.94734 
L 680.089759 270.133352 
L 680.926062 116.773886 
L 681.762365 232.74731 
L 682.598668 207.58073 
L 683.434971 221.226913 
L 684.271274 190.63273 
L 685.107577 260.901414 
L 685.94388 305.209853 
L 686.780183 206.736123 
L 687.616486 239.916235 
L 688.452789 214.324671 
L 689.289092 277.301309 
L 690.125396 279.799264 
L 690.961699 280.037108 
L 691.798002 216.305965 
L 692.634305 319.547216 
L 693.470608 239.052383 
L 695.143214 272.802979 
L 695.979517 267.33278 
L 696.81582 294.551274 
L 697.652123 187.841925 
L 698.488426 152.407983 
L 699.324729 238.821893 
L 700.161032 256.588826 
L 700.997336 341.733276 
L 701.833639 237.213214 
L 702.669942 278.806584 
L 703.506245 233.74459 
L 704.342548 269.468542 
L 705.178851 246.939829 
L 706.015154 307.880369 
L 706.851457 246.198118 
L 707.68776 301.830507 
L 708.524063 201.908182 
L 709.360366 264.011431 
L 710.196669 265.080471 
L 711.032973 302.560859 
L 712.705579 251.076413 
L 713.541882 308.499999 
L 714.378185 297.344523 
L 715.214488 253.375139 
L 716.050791 175.610096 
L 716.887094 214.932738 
L 717.723397 338.793163 
L 718.5597 326.24021 
L 719.396003 228.043727 
L 720.232306 192.616995 
L 721.068609 336.400316 
L 721.904913 188.7444 
L 722.741216 149.394295 
L 723.577519 296.356482 
L 724.413822 243.516544 
L 725.250125 273.319983 
L 726.086428 264.747205 
L 726.922731 334.04646 
L 727.759034 259.183322 
L 728.595337 219.539275 
L 729.43164 238.79491 
L 730.267943 328.785441 
L 731.104246 290.627726 
L 731.94055 232.518684 
L 733.613156 263.994387 
L 734.449459 165.222187 
L 735.285762 221.175658 
L 736.122065 204.699152 
L 736.958368 254.549102 
L 737.794671 244.12171 
L 738.630974 219.784503 
L 739.467277 221.676356 
L 740.30358 208.731789 
L 741.139883 347.120701 
L 741.976187 196.836853 
L 742.81249 234.142854 
L 743.648793 284.603306 
L 744.485096 254.865859 
L 745.321399 341.639693 
L 746.157702 224.901479 
L 747.830308 353.545794 
L 748.666611 213.238884 
L 749.502914 237.955757 
L 750.339217 198.599438 
L 751.17552 238.027973 
L 752.011823 320.676512 
L 752.848127 298.871588 
L 753.68443 252.885899 
L 754.520733 229.604147 
L 755.357036 154.91407 
L 756.193339 292.169203 
L 757.029642 219.258669 
L 757.865945 235.122652 
L 758.702248 261.775141 
L 759.538551 236.766789 
L 760.374854 331.625523 
L 761.211157 260.528467 
L 762.04746 244.506343 
L 762.883764 357.473544 
L 763.720067 219.475385 
L 764.55637 239.477428 
L 765.392673 296.214563 
L 766.228976 311.268412 
L 767.065279 261.663492 
L 767.901582 177.213668 
L 768.737885 222.51669 
L 769.574188 203.33202 
L 770.410491 263.782079 
L 771.246794 279.750869 
L 772.083097 362.316535 
L 772.9194 198.967394 
L 773.755704 266.615379 
L 774.592007 376.199216 
L 775.42831 260.045494 
L 776.264613 212.724929 
L 777.100916 178.134369 
L 777.937219 167.21001 
L 778.773522 231.286477 
L 779.609825 210.499541 
L 780.446128 173.216872 
L 781.282431 272.963378 
L 782.118734 315.799274 
L 782.955037 305.99155 
L 783.791341 251.35923 
L 784.627644 265.813949 
L 785.463947 288.078041 
L 786.30025 251.587263 
L 787.136553 296.154502 
L 787.972856 298.236788 
L 788.809159 189.54096 
L 789.645462 200.325617 
L 790.481765 180.513503 
L 791.318068 203.427095 
L 792.154371 205.824253 
L 792.990674 279.114791 
L 793.826978 249.703833 
L 795.499584 142.588682 
L 796.335887 247.072456 
L 797.17219 235.522873 
L 798.008493 213.920206 
L 798.844796 274.198165 
L 799.681099 239.687825 
L 800.517402 234.323619 
L 801.353705 147.576248 
L 802.190008 207.294084 
L 803.026311 247.372588 
L 803.862614 236.775542 
L 804.698918 181.40781 
L 805.535221 263.881628 
L 806.371524 285.806763 
L 807.207827 339.722027 
L 808.04413 264.245656 
L 808.880433 264.17574 
L 809.716736 236.89049 
L 810.553039 269.012628 
L 811.389342 282.568378 
L 812.225645 197.592102 
L 813.061948 242.043212 
L 813.898251 389.154416 
L 814.734555 424.0425 
L 815.570858 217.436522 
L 816.407161 219.92667 
L 817.243464 218.689618 
L 818.079767 290.91797 
L 818.91607 352.428778 
L 819.752373 206.566567 
L 820.588676 167.561293 
L 821.424979 226.120331 
L 822.261282 176.127311 
L 823.097585 342.112021 
L 823.933888 225.407214 
L 824.770192 306.209649 
L 825.606495 259.365749 
L 826.442798 237.708504 
L 827.279101 300.882823 
L 828.115404 171.379668 
L 828.951707 255.993425 
L 829.78801 261.076009 
L 830.624313 167.398254 
L 831.460616 359.32954 
L 832.296919 201.091771 
L 833.133222 193.293299 
L 833.969525 221.744748 
L 834.805828 189.773409 
L 835.642132 184.355036 
L 836.478435 213.243201 
L 837.314738 277.066318 
L 838.151041 155.751892 
L 838.987344 208.157045 
L 839.823647 166.590068 
L 840.65995 229.099836 
L 841.496253 259.712408 
L 842.332556 362.475885 
L 843.168859 228.829216 
L 844.005162 218.578177 
L 844.841465 201.726476 
L 845.677769 149.701709 
L 846.514072 264.775828 
L 847.350375 239.054841 
L 848.186678 218.572754 
L 849.022981 245.130664 
L 849.859284 290.745766 
L 850.695587 246.480633 
L 851.53189 265.525647 
L 852.368193 193.58632 
L 853.204496 351.053109 
L 854.040799 235.115964 
L 854.877102 243.193929 
L 855.713405 305.384503 
L 856.549709 261.142677 
L 857.386012 308.344018 
L 858.222315 377.500909 
L 859.058618 206.268707 
L 859.894921 260.159278 
L 860.731224 188.587441 
L 861.567527 257.571981 
L 862.40383 351.63931 
L 863.240133 275.366016 
L 864.076436 299.527399 
L 864.912739 164.4903 
L 865.749042 173.26187 
L 866.585346 174.664278 
L 867.421649 249.744118 
L 868.257952 208.522259 
L 869.094255 301.191671 
L 869.930558 264.981228 
L 870.766861 252.248112 
L 871.603164 266.537914 
L 872.439467 183.129959 
L 873.27577 244.066228 
L 874.112073 189.721859 
L 874.948376 289.55504 
L 876.620983 362.386125 
L 877.457286 325.916666 
L 878.293589 198.183068 
L 879.129892 281.731699 
L 879.966195 266.974117 
L 880.802498 273.975923 
L 882.475104 169.939979 
L 883.311407 248.218737 
L 884.14771 246.307111 
L 884.984013 215.95461 
L 885.820316 271.465701 
L 886.656619 254.226165 
L 887.492923 338.519431 
L 888.329226 252.815898 
L 890.001832 348.158695 
L 890.838135 219.428047 
L 891.674438 182.473355 
L 892.510741 259.455621 
L 893.347044 163.526121 
L 894.183347 271.732197 
L 895.01965 317.423043 
L 895.855953 230.52278 
L 896.692256 235.783184 
L 897.52856 238.147805 
L 898.364863 166.694595 
L 899.201166 213.318295 
L 900.037469 200.230307 
L 900.873772 205.902419 
L 901.710075 243.81921 
L 902.546378 259.497525 
L 903.382681 341.447485 
L 904.218984 185.692999 
L 905.055287 224.278491 
L 905.89159 244.418054 
L 906.727893 307.006561 
L 907.564197 310.149485 
L 908.4005 202.248333 
L 909.236803 208.884287 
L 910.073106 205.416685 
L 910.909409 262.047142 
L 911.745712 200.049764 
L 912.582015 203.474699 
L 913.418318 280.691266 
L 914.254621 198.453203 
L 915.090924 195.910454 
L 915.927227 240.404508 
L 916.76353 155.425958 
L 917.599833 369.997197 
L 918.436137 212.802438 
L 919.27244 212.090728 
L 920.108743 294.054575 
L 920.945046 309.130992 
L 921.781349 337.150702 
L 922.617652 257.346991 
L 923.453955 294.986926 
L 924.290258 231.197098 
L 925.126561 223.291374 
L 925.962864 240.211586 
L 926.799167 254.834485 
L 927.63547 248.898831 
L 928.471774 259.522274 
L 929.308077 287.686896 
L 930.14438 233.348951 
L 930.980683 222.772639 
L 931.816986 190.011584 
L 932.653289 310.224457 
L 933.489592 290.006927 
L 934.325895 199.056653 
L 935.162198 247.661147 
L 935.998501 188.195761 
L 936.834804 176.254889 
L 937.671107 151.1554 
L 938.50741 314.622131 
L 939.343714 401.557723 
L 940.180017 190.118725 
L 941.01632 223.471055 
L 941.852623 198.306032 
L 942.688926 338.432031 
L 943.525229 193.512529 
L 944.361532 372.076433 
L 945.197835 277.953074 
L 946.034138 265.111872 
L 946.870441 184.428673 
L 947.706744 294.624624 
L 948.543047 204.726493 
L 949.379351 236.136532 
L 950.215654 247.267059 
L 951.051957 200.821461 
L 951.88826 247.28185 
L 952.724563 172.029025 
L 953.560866 143.951317 
L 954.397169 170.286194 
L 955.233472 332.055112 
L 956.069775 181.785166 
L 957.742381 273.03075 
L 958.578684 308.322714 
L 959.414988 293.301928 
L 960.251291 291.440629 
L 961.087594 265.17608 
L 961.923897 322.252883 
L 962.7602 303.256879 
L 963.596503 208.221776 
L 964.432806 253.865814 
L 965.269109 197.06088 
L 966.105412 201.554993 
L 966.941715 254.618005 
L 967.778018 271.570548 
L 968.614321 260.5567 
L 969.450624 333.237881 
L 970.286928 174.543345 
L 971.959534 234.913663 
L 972.795837 203.499913 
L 973.63214 301.364777 
L 974.468443 196.822182 
L 975.304746 258.542006 
L 976.141049 258.99871 
L 976.977352 256.464279 
L 977.813655 215.2576 
L 979.486261 363.607608 
L 980.322565 292.768226 
L 981.158868 238.877014 
L 981.995171 257.243515 
L 982.831474 259.386978 
L 983.667777 405.39361 
L 984.50408 310.433786 
L 985.340383 171.457276 
L 986.176686 229.107006 
L 987.012989 256.384974 
L 987.849292 199.698135 
L 988.685595 329.989016 
L 989.521898 187.33835 
L 990.358201 189.9015 
L 991.194505 179.826002 
L 992.030808 146.669888 
L 992.867111 225.486745 
L 993.703414 341.725479 
L 994.539717 362.113939 
L 995.37602 259.812878 
L 996.212323 216.543828 
L 997.048626 274.419829 
L 997.884929 173.099713 
L 998.721232 301.421384 
L 999.557535 216.662193 
L 1000.393838 201.999079 
L 1001.230142 223.539742 
L 1002.066445 214.201887 
L 1002.902748 223.758575 
L 1003.739051 275.782714 
L 1004.575354 286.456715 
L 1005.411657 264.02204 
L 1006.24796 260.844404 
L 1007.084263 224.781716 
L 1007.920566 175.012795 
L 1008.756869 270.929129 
L 1009.593172 307.258049 
L 1010.429475 241.432555 
L 1011.265779 245.938652 
L 1012.102082 193.517242 
L 1012.938385 223.437816 
L 1013.774688 248.911986 
L 1014.610991 223.305714 
L 1015.447294 285.033649 
L 1016.283597 216.070933 
L 1017.1199 342.712337 
L 1017.956203 306.819559 
L 1018.792506 312.440508 
L 1019.628809 156.73518 
L 1020.465112 186.381433 
L 1021.301415 263.980264 
L 1022.137719 183.869138 
L 1022.974022 364.254983 
L 1023.810325 197.788461 
L 1024.646628 250.611697 
L 1025.482931 168.218082 
L 1026.319234 221.65001 
L 1027.155537 298.950762 
L 1027.99184 246.798058 
L 1028.828143 240.44959 
L 1029.664446 239.925103 
L 1030.500749 169.7982 
L 1031.337052 184.763296 
L 1032.173356 226.553356 
L 1033.009659 373.045517 
L 1033.845962 259.170745 
L 1034.682265 354.338773 
L 1035.518568 285.121185 
L 1036.354871 282.810883 
L 1037.191174 289.50877 
L 1038.027477 286.84106 
L 1038.86378 232.987753 
L 1039.700083 240.041832 
L 1040.536386 220.691617 
L 1041.372689 247.143944 
L 1042.208993 216.432891 
L 1043.045296 166.823966 
L 1043.881599 194.062348 
L 1044.717902 236.928694 
L 1045.554205 325.827942 
L 1046.390508 325.363491 
L 1047.226811 283.495191 
L 1048.063114 282.650985 
L 1048.899417 211.279845 
L 1049.73572 245.159682 
L 1050.572023 180.746184 
L 1051.408326 320.408836 
L 1052.244629 358.676974 
L 1053.917236 158.809062 
L 1054.753539 219.711743 
L 1055.589842 100.964424 
L 1056.426145 220.04736 
L 1057.262448 299.630774 
L 1058.098751 326.363483 
L 1058.935054 259.818678 
L 1059.771357 276.102692 
L 1060.60766 228.866869 
L 1061.443963 270.573641 
L 1062.280266 234.431004 
L 1063.11657 295.251738 
L 1063.952873 174.596049 
L 1064.789176 320.763825 
L 1065.625479 270.828704 
L 1066.461782 251.78853 
L 1067.298085 272.939862 
L 1068.134388 300.325372 
L 1068.970691 143.704037 
L 1069.806994 194.545005 
L 1071.4796 276.120538 
L 1072.315903 251.823338 
L 1073.152206 280.892377 
L 1073.98851 203.84674 
L 1074.824813 163.408131 
L 1075.661116 262.006601 
L 1076.497419 263.143647 
L 1077.333722 237.617005 
L 1078.170025 231.09893 
L 1079.006328 269.435507 
L 1079.842631 256.429589 
L 1080.678934 287.237451 
L 1081.515237 299.045736 
L 1082.35154 261.386214 
L 1083.187843 208.123821 
L 1084.024147 283.295182 
L 1084.86045 258.032257 
L 1085.696753 268.404156 
L 1086.533056 187.728296 
L 1087.369359 158.529047 
L 1088.205662 143.64404 
L 1089.041965 205.518863 
L 1089.878268 235.866415 
L 1090.714571 248.827363 
L 1091.550874 207.805692 
L 1092.387177 259.569848 
L 1093.22348 219.489896 
L 1094.059784 137.963694 
L 1095.73239 222.021498 
L 1096.568693 229.830669 
L 1097.404996 298.801396 
L 1098.241299 253.270816 
L 1099.077602 239.929657 
L 1099.913905 207.206813 
L 1100.750208 234.921319 
L 1101.586511 234.890072 
L 1102.422814 361.561268 
L 1103.259117 213.427611 
L 1104.09542 254.504337 
L 1104.931724 260.626354 
L 1106.60433 317.044237 
L 1107.440633 247.415994 
L 1108.276936 346.899455 
L 1109.113239 214.452248 
L 1109.949542 295.857926 
L 1110.785845 389.379525 
L 1111.622148 231.237177 
L 1112.458451 261.395302 
L 1113.294754 211.608884 
L 1114.131057 189.225549 
L 1114.967361 299.849932 
L 1115.803664 234.606439 
L 1116.639967 128.235584 
L 1118.312573 229.267955 
L 1119.148876 224.503282 
L 1119.985179 215.086686 
L 1120.821482 254.040462 
L 1121.657785 272.754902 
L 1122.494088 281.235932 
L 1123.330391 257.706138 
L 1124.166694 286.886427 
L 1125.002998 289.94672 
L 1125.839301 181.408996 
L 1127.511907 280.655975 
L 1128.34821 287.927013 
L 1129.184513 249.216025 
L 1130.020816 225.562684 
L 1130.857119 193.542248 
L 1131.693422 352.507135 
L 1132.529725 309.245844 
L 1133.366028 337.445069 
L 1134.202331 212.899513 
L 1135.038634 222.367103 
L 1135.874938 276.461402 
L 1136.711241 210.344394 
L 1137.547544 284.620579 
L 1138.383847 221.112655 
L 1139.22015 288.198676 
L 1140.056453 167.845586 
L 1140.892756 259.063347 
L 1141.729059 228.83896 
L 1142.565362 321.018803 
L 1143.401665 210.726354 
L 1144.237968 267.321585 
L 1145.074271 236.507756 
L 1145.910575 284.467338 
L 1146.746878 280.557528 
L 1147.583181 155.889632 
L 1148.419484 213.056731 
L 1149.255787 179.928368 
L 1150.09209 292.64583 
L 1151.764696 108.48615 
L 1152.600999 225.837579 
L 1153.437302 297.117266 
L 1154.273605 273.559437 
L 1155.109908 287.356294 
L 1155.946211 254.278412 
L 1156.782515 304.564983 
L 1157.618818 288.396781 
L 1158.455121 227.208152 
L 1159.291424 286.006911 
L 1160.127727 202.929761 
L 1160.96403 304.484488 
L 1161.800333 124.368468 
L 1162.636636 257.258824 
L 1163.472939 295.610275 
L 1164.309242 98.532 
L 1165.145545 231.403277 
L 1165.981848 285.197486 
L 1165.981848 285.197486 
" style="fill:none;stroke:#1f77b4;stroke-linecap:round;stroke-width:1.5;"/>
   </g>
   <g id="line2d_15">
    <path clip-path="url(#p3eb2838a6e)" d="M 162.418152 252.616872 
L 1165.981848 252.616872 
" style="fill:none;stroke:#000000;stroke-dasharray:5.55,2.4;stroke-dashoffset:0;stroke-width:1.5;"/>
   </g>
   <g id="line2d_16">
    <path clip-path="url(#p3eb2838a6e)" d="M 162.418152 232.069202 
L 163.254455 235.374428 
L 164.090758 239.641774 
L 165.763364 249.161385 
L 166.599667 257.356698 
L 167.43597 267.564363 
L 168.272273 271.60389 
L 169.108576 266.066496 
L 169.944879 256.978004 
L 171.617485 242.273727 
L 172.453789 234.707027 
L 173.290092 232.466633 
L 174.126395 237.035698 
L 174.962698 244.403905 
L 175.799001 248.340703 
L 176.635304 244.250369 
L 177.471607 235.340813 
L 178.30791 224.176531 
L 179.144213 220.645981 
L 179.980516 221.703394 
L 180.816819 222.057139 
L 181.653122 225.56623 
L 183.325729 245.116394 
L 184.162032 246.033915 
L 185.834638 240.254093 
L 186.670941 238.572678 
L 187.507244 238.961796 
L 188.343547 240.47933 
L 190.016153 245.342744 
L 190.852456 249.834053 
L 193.361366 272.363978 
L 194.197669 278.269973 
L 195.033972 276.450115 
L 195.870275 268.862422 
L 196.706578 263.77367 
L 197.542881 260.044987 
L 198.379184 252.725965 
L 199.215487 249.519821 
L 200.05179 252.012539 
L 200.888093 257.269609 
L 201.724396 260.140376 
L 202.560699 259.147272 
L 203.397002 258.639976 
L 204.233306 257.059133 
L 205.069609 253.212664 
L 205.905912 251.846519 
L 206.742215 251.714236 
L 207.578518 251.067172 
L 208.414821 250.604768 
L 209.251124 252.560579 
L 210.087427 256.165121 
L 210.92373 258.29033 
L 211.760033 257.453863 
L 212.596336 255.312371 
L 213.432639 254.327275 
L 214.268943 254.367605 
L 215.105246 255.554324 
L 215.941549 264.529981 
L 216.777852 277.853685 
L 217.614155 287.500078 
L 218.450458 292.52212 
L 219.286761 296.483055 
L 220.123064 299.16881 
L 220.959367 297.442681 
L 221.79567 289.348018 
L 222.631973 283.222369 
L 223.468276 281.68617 
L 224.30458 278.076352 
L 225.140883 269.814569 
L 225.977186 262.738365 
L 226.813489 262.063207 
L 227.649792 264.507859 
L 228.486095 267.360216 
L 229.322398 272.292796 
L 230.158701 278.252307 
L 230.995004 281.632988 
L 231.831307 280.991229 
L 232.66761 278.319631 
L 233.503913 276.467313 
L 234.340216 274.303187 
L 235.17652 270.634562 
L 236.012823 265.592 
L 238.521732 246.392162 
L 241.030641 232.088641 
L 241.866944 230.783454 
L 242.703247 230.507346 
L 243.53955 231.227697 
L 244.375853 234.010717 
L 245.212157 238.437841 
L 246.884763 254.1087 
L 247.721066 257.487718 
L 248.557369 259.238663 
L 249.393672 262.683411 
L 250.229975 267.345819 
L 251.902581 273.273118 
L 252.738884 275.330863 
L 253.575187 273.880951 
L 255.247794 267.833291 
L 256.9204 260.326213 
L 257.756703 259.114234 
L 258.593006 262.078784 
L 259.429309 266.066168 
L 260.265612 271.222127 
L 261.101915 278.565831 
L 262.774521 298.699256 
L 263.610824 306.141532 
L 264.447127 304.421399 
L 265.28343 295.354733 
L 266.119734 290.072787 
L 266.956037 287.683117 
L 267.79234 281.886334 
L 268.628643 277.521591 
L 269.464946 278.310297 
L 270.301249 283.074742 
L 271.137552 282.022324 
L 272.810158 269.465943 
L 273.646461 262.405494 
L 274.482764 253.219789 
L 275.319067 248.823801 
L 276.155371 249.842103 
L 276.991674 251.35474 
L 277.827977 253.913094 
L 278.66428 263.179937 
L 279.500583 274.365045 
L 280.336886 282.145299 
L 281.173189 285.479044 
L 282.009492 288.0415 
L 282.845795 288.921864 
L 284.518401 276.176302 
L 285.354704 271.553622 
L 286.191007 268.267814 
L 287.027311 268.320352 
L 287.863614 270.475402 
L 288.699917 274.860607 
L 289.53622 277.289393 
L 290.372523 277.866733 
L 291.208826 277.674802 
L 292.045129 275.257865 
L 293.717735 259.042919 
L 294.554038 253.823511 
L 295.390341 253.059065 
L 296.226644 254.169933 
L 297.062948 255.952495 
L 298.735554 264.379981 
L 299.571857 265.287319 
L 300.40816 262.467753 
L 301.244463 260.053182 
L 302.080766 254.631661 
L 303.753372 246.479253 
L 304.589675 240.722365 
L 305.425978 232.87078 
L 306.262281 232.548729 
L 307.098585 238.969883 
L 308.771191 248.752578 
L 309.607494 261.910918 
L 310.443797 282.745146 
L 311.2801 300.401359 
L 312.116403 307.427397 
L 312.952706 308.608976 
L 313.789009 307.274314 
L 314.625312 299.689533 
L 316.297918 269.008451 
L 317.134221 259.928694 
L 317.970525 256.056808 
L 318.806828 256.808906 
L 320.479434 268.619878 
L 322.15204 276.54016 
L 322.988343 282.310943 
L 323.824646 284.563896 
L 324.660949 283.898788 
L 325.497252 283.733336 
L 326.333555 282.839293 
L 327.169858 279.677952 
L 329.678768 267.924406 
L 330.515071 262.04154 
L 331.351374 257.09279 
L 332.187677 251.444399 
L 333.860283 238.388827 
L 334.696586 235.725704 
L 335.532889 234.90097 
L 336.369192 240.050247 
L 338.878102 272.507908 
L 339.714405 275.470106 
L 340.550708 272.594008 
L 341.387011 264.828346 
L 343.059617 242.585166 
L 343.89592 236.030951 
L 344.732223 237.301051 
L 345.568526 247.801957 
L 346.404829 261.304412 
L 348.077435 276.100195 
L 348.913739 281.380576 
L 349.750042 281.759738 
L 350.586345 275.561151 
L 351.422648 268.381315 
L 352.258951 263.022416 
L 353.095254 255.655445 
L 353.931557 251.087178 
L 354.76786 252.838028 
L 355.604163 257.993674 
L 358.113072 279.085358 
L 358.949376 281.689835 
L 360.621982 284.778872 
L 361.458285 281.896144 
L 362.294588 275.726505 
L 363.130891 274.854337 
L 363.967194 275.479659 
L 364.803497 272.045733 
L 365.6398 267.040969 
L 366.476103 267.585923 
L 367.312406 273.462437 
L 368.148709 275.967554 
L 368.985012 272.139476 
L 371.493922 253.670559 
L 372.330225 247.168167 
L 373.166528 246.500598 
L 374.002831 249.090344 
L 374.839134 252.09064 
L 376.51174 258.528572 
L 377.348043 261.289953 
L 378.184346 261.85496 
L 379.020649 261.910124 
L 379.856953 262.756087 
L 380.693256 262.16732 
L 382.365862 252.732823 
L 383.202165 255.042655 
L 384.038468 261.396581 
L 384.874771 268.679489 
L 386.547377 288.083202 
L 387.38368 291.877531 
L 388.219983 291.5859 
L 389.056286 289.291921 
L 389.89259 282.876766 
L 391.565196 262.123162 
L 392.401499 255.508128 
L 394.910408 226.464997 
L 395.746711 225.78948 
L 396.583014 227.52283 
L 397.419317 226.516641 
L 398.25562 226.782177 
L 399.091923 228.996296 
L 399.928226 227.872469 
L 400.76453 225.35012 
L 401.600833 224.214605 
L 402.437136 225.050093 
L 403.273439 226.812196 
L 404.109742 229.337002 
L 404.946045 235.354089 
L 405.782348 240.409671 
L 406.618651 241.356884 
L 407.454954 240.140599 
L 408.291257 240.295712 
L 409.12756 241.668693 
L 409.963863 240.243361 
L 410.800167 236.937528 
L 411.63647 239.796094 
L 413.309076 252.858665 
L 414.145379 255.674723 
L 414.981682 253.821713 
L 416.654288 245.661472 
L 417.490591 241.952444 
L 418.326894 239.372862 
L 419.163197 238.461689 
L 419.9995 241.734401 
L 420.835803 246.869759 
L 421.672107 249.808285 
L 422.50841 251.13655 
L 423.344713 252.790715 
L 424.181016 253.108501 
L 425.017319 252.003545 
L 425.853622 251.733639 
L 426.689925 250.523822 
L 427.526228 247.595411 
L 428.362531 246.221879 
L 429.198834 250.735711 
L 430.035137 259.819805 
L 430.87144 264.416964 
L 431.707744 264.356031 
L 432.544047 263.279432 
L 433.38035 262.48619 
L 435.052956 249.382439 
L 435.889259 247.145974 
L 436.725562 250.568633 
L 437.561865 261.796987 
L 438.398168 274.882426 
L 439.234471 285.759643 
L 440.070774 294.721748 
L 440.907077 296.89873 
L 441.743381 291.648916 
L 442.579684 279.950488 
L 443.415987 265.806628 
L 444.25229 258.688588 
L 445.088593 258.577882 
L 445.924896 259.969409 
L 446.761199 262.770468 
L 447.597502 267.933306 
L 448.433805 275.059998 
L 449.270108 280.347907 
L 450.106411 282.053341 
L 450.942714 284.678516 
L 451.779017 286.52669 
L 452.615321 289.484101 
L 453.451624 291.853106 
L 454.287927 289.389411 
L 455.12423 285.03412 
L 455.960533 282.825745 
L 456.796836 281.142538 
L 457.633139 280.883341 
L 458.469442 280.46332 
L 459.305745 282.529127 
L 460.142048 282.028137 
L 460.978351 276.512528 
L 462.650958 267.686055 
L 464.323564 249.746233 
L 466.832473 221.381864 
L 467.668776 215.64125 
L 468.505079 214.079589 
L 469.341382 221.293109 
L 470.177685 234.393507 
L 471.013988 249.364245 
L 471.850291 260.29139 
L 472.686595 268.714005 
L 475.195504 287.861394 
L 476.031807 290.608291 
L 476.86811 291.258011 
L 477.704413 290.961673 
L 478.540716 284.979699 
L 479.377019 276.795541 
L 480.213322 270.944441 
L 481.049625 267.884751 
L 481.885928 268.592669 
L 484.394838 269.004855 
L 485.231141 266.048104 
L 486.067444 261.972823 
L 486.903747 260.791029 
L 487.74005 257.409256 
L 488.576353 253.504007 
L 489.412656 252.973425 
L 490.248959 256.429938 
L 491.085262 260.494235 
L 491.921565 260.10068 
L 492.757868 260.35039 
L 493.594172 263.570848 
L 494.430475 265.119437 
L 495.266778 261.466209 
L 496.939384 250.592891 
L 497.775687 245.25015 
L 498.61199 240.925901 
L 499.448293 240.928012 
L 500.284596 244.633686 
L 501.120899 249.093803 
L 502.793505 260.518795 
L 503.629808 262.657739 
L 505.302415 258.950417 
L 506.138718 258.813713 
L 506.975021 259.380796 
L 507.811324 262.199811 
L 508.647627 270.216892 
L 509.48393 281.239049 
L 510.320233 282.607307 
L 511.156536 275.965301 
L 511.992839 273.680386 
L 512.829142 272.502817 
L 513.665445 266.194761 
L 514.501749 254.749539 
L 515.338052 248.267446 
L 516.174355 246.036462 
L 517.010658 239.839367 
L 518.683264 215.039962 
L 519.519567 213.158119 
L 520.35587 221.405035 
L 522.028476 230.587571 
L 522.864779 243.99664 
L 523.701082 259.949073 
L 524.537386 271.830465 
L 525.373689 279.136989 
L 526.209992 281.103695 
L 527.046295 278.270667 
L 527.882598 274.919762 
L 528.718901 270.537255 
L 529.555204 263.36354 
L 530.391507 255.155657 
L 531.22781 255.084684 
L 532.064113 261.763173 
L 532.900416 266.495598 
L 533.736719 267.201416 
L 534.573022 262.695169 
L 535.409326 253.571282 
L 536.245629 248.753754 
L 537.081932 249.150184 
L 537.918235 247.982841 
L 538.754538 248.908502 
L 539.590841 256.601664 
L 540.427144 266.318299 
L 541.263447 268.964535 
L 542.09975 267.570336 
L 542.936053 270.785197 
L 543.772356 272.002764 
L 544.608659 266.289921 
L 545.444963 258.909594 
L 546.281266 254.366033 
L 547.953872 248.542118 
L 549.626478 258.91949 
L 550.462781 258.036893 
L 551.299084 256.405867 
L 552.135387 253.704688 
L 552.97169 246.497122 
L 553.807993 240.808575 
L 554.644296 242.364183 
L 556.316903 257.640297 
L 557.989509 267.622678 
L 558.825812 270.185768 
L 559.662115 271.155825 
L 560.498418 272.560792 
L 561.334721 271.700664 
L 562.171024 269.369915 
L 563.007327 263.798917 
L 563.84363 256.205338 
L 564.679933 251.569497 
L 565.516236 250.262048 
L 566.35254 250.704598 
L 567.188843 253.34615 
L 568.861449 264.346724 
L 569.697752 264.863732 
L 570.534055 257.865522 
L 571.370358 253.280435 
L 572.206661 253.783902 
L 573.042964 252.506888 
L 573.879267 250.798472 
L 574.71557 257.058341 
L 575.551873 268.035073 
L 576.388177 276.882445 
L 577.22448 281.918889 
L 578.060783 286.096627 
L 578.897086 286.219858 
L 579.733389 277.251993 
L 580.569692 262.294638 
L 583.078601 227.087001 
L 583.914904 222.395678 
L 584.751207 226.098848 
L 585.58751 234.44716 
L 586.423813 240.143069 
L 588.09642 245.888143 
L 588.932723 243.237454 
L 589.769026 233.409892 
L 590.605329 226.357121 
L 592.277935 233.43263 
L 593.114238 232.507968 
L 593.950541 234.690165 
L 594.786844 241.307183 
L 595.623147 240.30936 
L 596.45945 229.394497 
L 597.295754 226.670072 
L 598.96836 240.35136 
L 599.804663 244.13279 
L 601.477269 248.835711 
L 602.313572 248.265446 
L 603.149875 238.707726 
L 603.986178 223.528219 
L 604.822481 211.482506 
L 605.658784 204.962681 
L 606.495087 202.570963 
L 607.331391 205.820564 
L 608.167694 219.512163 
L 609.003997 238.297482 
L 609.8403 254.104199 
L 610.676603 263.309228 
L 611.512906 266.650681 
L 612.349209 261.247876 
L 614.021815 239.636922 
L 614.858118 233.841659 
L 615.694421 228.93246 
L 616.530724 225.956675 
L 617.367027 226.865268 
L 618.203331 229.289007 
L 619.039634 230.388199 
L 619.875937 234.350031 
L 620.71224 243.385963 
L 621.548543 250.539251 
L 622.384846 252.03068 
L 623.221149 252.328762 
L 624.057452 254.902844 
L 624.893755 252.554724 
L 625.730058 242.093848 
L 626.566361 236.145312 
L 627.402664 237.494537 
L 628.238968 245.242671 
L 630.747877 276.72651 
L 631.58418 283.603555 
L 632.420483 283.105808 
L 633.256786 274.595483 
L 634.929392 242.156004 
L 635.765695 234.479083 
L 636.601998 232.051181 
L 637.438301 231.228052 
L 638.274604 231.559757 
L 639.110908 231.292836 
L 639.947211 227.476867 
L 640.783514 225.489784 
L 641.619817 224.033234 
L 642.45612 225.230706 
L 643.292423 230.228307 
L 644.128726 241.147206 
L 644.965029 249.295623 
L 645.801332 252.413065 
L 646.637635 251.667684 
L 647.473938 249.478187 
L 648.310241 246.359149 
L 649.982848 237.495748 
L 650.819151 237.153315 
L 651.655454 237.895282 
L 652.491757 238.410468 
L 653.32806 244.255023 
L 654.164363 253.0182 
L 655.000666 258.51208 
L 655.836969 257.619801 
L 656.673272 253.157245 
L 657.509575 250.723662 
L 658.345878 250.158744 
L 659.182182 250.661888 
L 660.018485 253.788559 
L 660.854788 260.458621 
L 661.691091 265.560779 
L 662.527394 266.030687 
L 663.363697 263.639176 
L 664.2 260.276179 
L 665.872606 248.492334 
L 666.708909 245.435975 
L 667.545212 247.061419 
L 668.381515 247.53363 
L 669.217818 246.008542 
L 670.054122 248.316999 
L 670.890425 251.138909 
L 671.726728 249.488785 
L 672.563031 243.368922 
L 673.399334 235.831064 
L 674.235637 230.985282 
L 675.07194 229.199095 
L 675.908243 227.793951 
L 676.744546 228.55785 
L 677.580849 230.788476 
L 678.417152 231.213347 
L 679.253455 229.590206 
L 680.089759 226.155829 
L 680.926062 221.293626 
L 681.762365 217.531324 
L 682.598668 218.08136 
L 683.434971 223.083326 
L 684.271274 229.804342 
L 685.94388 235.782656 
L 687.616486 247.490193 
L 689.289092 253.186031 
L 690.125396 259.713371 
L 690.961699 264.424766 
L 691.798002 265.766069 
L 692.634305 264.35531 
L 693.470608 263.84081 
L 694.306911 264.547752 
L 695.143214 260.87205 
L 695.979517 250.803048 
L 696.81582 243.584041 
L 697.652123 241.292517 
L 698.488426 240.920614 
L 699.324729 241.101263 
L 700.161032 244.778881 
L 700.997336 253.172046 
L 701.833639 260.041913 
L 702.669942 262.135485 
L 704.342548 262.577666 
L 705.178851 264.821023 
L 706.015154 264.727698 
L 706.851457 264.206127 
L 707.68776 264.299604 
L 708.524063 265.853502 
L 709.360366 266.496153 
L 710.196669 267.697079 
L 711.032973 271.752397 
L 711.869276 278.044342 
L 712.705579 279.157007 
L 713.541882 272.404837 
L 714.378185 263.034667 
L 715.214488 260.216197 
L 716.050791 261.868137 
L 716.887094 257.378388 
L 717.723397 250.613604 
L 718.5597 249.99361 
L 719.396003 247.876516 
L 721.068609 229.224035 
L 721.904913 228.220992 
L 722.741216 232.945492 
L 723.577519 240.597527 
L 725.250125 264.449591 
L 726.086428 267.97499 
L 726.922731 265.321467 
L 727.759034 266.535741 
L 728.595337 268.29988 
L 729.43164 265.523206 
L 730.267943 261.440884 
L 731.104246 260.433272 
L 731.94055 256.883753 
L 732.776853 246.763633 
L 733.613156 234.538379 
L 734.449459 228.2418 
L 735.285762 226.389569 
L 736.122065 224.842337 
L 736.958368 224.566053 
L 737.794671 227.034368 
L 738.630974 229.112975 
L 739.467277 228.239223 
L 740.30358 227.659421 
L 741.139883 231.274643 
L 741.976187 239.019034 
L 742.81249 248.766891 
L 745.321399 273.504666 
L 746.157702 274.239147 
L 746.994005 267.575217 
L 747.830308 258.043231 
L 748.666611 249.904093 
L 749.502914 247.807147 
L 750.339217 248.863058 
L 752.011823 254.457523 
L 752.848127 255.094302 
L 753.68443 254.779282 
L 754.520733 250.1761 
L 755.357036 242.347685 
L 756.193339 237.492774 
L 757.029642 238.970911 
L 758.702248 254.18319 
L 759.538551 258.951566 
L 760.374854 265.060871 
L 761.211157 267.350387 
L 762.04746 265.989721 
L 762.883764 265.735969 
L 763.720067 267.161912 
L 764.55637 267.950201 
L 765.392673 263.711395 
L 766.228976 255.587509 
L 767.065279 249.204055 
L 767.901582 244.543854 
L 768.737885 240.675745 
L 769.574188 242.85229 
L 770.410491 249.13472 
L 772.083097 265.336557 
L 772.9194 268.548722 
L 773.755704 262.389194 
L 775.42831 234.597813 
L 777.937219 205.816333 
L 778.773522 207.585743 
L 779.609825 220.886906 
L 780.446128 239.140529 
L 781.282431 253.140165 
L 782.955037 272.880199 
L 783.791341 278.213235 
L 784.627644 277.514145 
L 785.463947 274.352515 
L 786.30025 267.943552 
L 787.136553 257.548937 
L 789.645462 219.402181 
L 790.481765 212.060079 
L 791.318068 212.589559 
L 792.154371 215.891054 
L 792.990674 216.952902 
L 793.826978 219.397593 
L 794.663281 222.2739 
L 795.499584 222.31646 
L 796.335887 222.086339 
L 797.17219 226.172353 
L 798.008493 232.571237 
L 798.844796 232.671801 
L 799.681099 227.922411 
L 800.517402 225.71749 
L 801.353705 223.963874 
L 802.190008 220.176601 
L 803.026311 221.392586 
L 803.862614 231.370889 
L 804.698918 247.108661 
L 805.535221 258.479455 
L 806.371524 264.676478 
L 807.207827 269.275426 
L 808.04413 272.515416 
L 808.880433 270.688482 
L 810.553039 254.048465 
L 811.389342 248.731779 
L 812.225645 244.25681 
L 813.898251 231.81713 
L 814.734555 227.779666 
L 815.570858 229.489402 
L 816.407161 231.640391 
L 817.243464 234.659661 
L 819.752373 223.587517 
L 820.588676 219.228111 
L 821.424979 216.840626 
L 822.261282 224.764718 
L 823.933888 246.80447 
L 824.770192 255.78904 
L 825.606495 259.09656 
L 826.442798 255.988976 
L 827.279101 251.629143 
L 828.115404 243.710557 
L 829.78801 226.108608 
L 830.624313 218.935454 
L 831.460616 213.956654 
L 833.133222 201.197654 
L 833.969525 201.298796 
L 834.805828 204.13846 
L 835.642132 204.911006 
L 836.478435 203.218626 
L 837.314738 201.227773 
L 838.151041 203.523034 
L 838.987344 208.206504 
L 841.496253 224.596027 
L 842.332556 226.551161 
L 843.168859 225.275977 
L 844.841465 219.046919 
L 845.677769 218.994195 
L 846.514072 222.474239 
L 847.350375 230.666385 
L 848.186678 241.031877 
L 849.022981 248.017187 
L 849.859284 249.695802 
L 850.695587 252.891823 
L 851.53189 254.816391 
L 852.368193 254.666944 
L 853.204496 255.571854 
L 854.040799 259.532315 
L 854.877102 266.658221 
L 855.713405 275.094672 
L 856.549709 276.611943 
L 857.386012 273.106023 
L 859.058618 260.273345 
L 859.894921 256.811749 
L 860.731224 255.940466 
L 861.567527 259.374694 
L 862.40383 259.141285 
L 863.240133 251.803514 
L 864.912739 230.921683 
L 865.749042 219.306139 
L 866.585346 215.18477 
L 867.421649 220.671231 
L 869.094255 245.915593 
L 869.930558 250.797052 
L 870.766861 249.359203 
L 871.603164 244.838669 
L 872.439467 243.593813 
L 873.27577 250.099497 
L 874.112073 263.394348 
L 874.948376 279.244139 
L 875.784679 292.490202 
L 876.620983 298.336433 
L 877.457286 299.046454 
L 878.293589 293.03453 
L 879.129892 278.312698 
L 879.966195 260.010462 
L 880.802498 247.728632 
L 882.475104 236.412342 
L 883.311407 233.583852 
L 884.14771 236.938751 
L 886.656619 268.516465 
L 887.492923 277.81464 
L 888.329226 279.932468 
L 889.165529 272.899636 
L 890.001832 262.816266 
L 890.838135 251.002706 
L 891.674438 243.34551 
L 892.510741 239.411919 
L 893.347044 239.49167 
L 894.183347 242.547657 
L 895.01965 244.849079 
L 895.855953 242.208204 
L 896.692256 235.250711 
L 897.52856 224.14813 
L 898.364863 215.064584 
L 899.201166 212.614218 
L 900.037469 216.104201 
L 900.873772 225.29744 
L 901.710075 232.649029 
L 902.546378 235.277233 
L 903.382681 239.610253 
L 904.218984 246.788992 
L 905.055287 251.391676 
L 905.89159 250.086032 
L 906.727893 246.438873 
L 908.4005 242.048908 
L 909.236803 234.335441 
L 910.073106 223.989381 
L 910.909409 220.293848 
L 911.745712 221.26423 
L 912.582015 220.876542 
L 913.418318 218.689537 
L 915.090924 210.200709 
L 915.927227 207.273425 
L 916.76353 208.520301 
L 917.599833 217.12337 
L 918.436137 230.319634 
L 919.27244 245.650868 
L 920.108743 263.792576 
L 920.945046 276.597122 
L 921.781349 281.31125 
L 922.617652 278.475789 
L 925.126561 249.993008 
L 925.962864 247.234117 
L 926.799167 248.533307 
L 927.63547 251.3259 
L 928.471774 250.937902 
L 929.308077 247.111208 
L 930.14438 246.149051 
L 930.980683 247.451456 
L 931.816986 245.052933 
L 932.653289 240.829469 
L 933.489592 237.227645 
L 934.325895 231.863 
L 935.162198 219.491351 
L 935.998501 203.515365 
L 936.834804 195.425172 
L 937.671107 194.976656 
L 938.50741 195.35455 
L 939.343714 199.863182 
L 941.01632 218.601554 
L 941.852623 227.562708 
L 942.688926 240.535724 
L 943.525229 250.17575 
L 944.361532 255.145865 
L 945.197835 258.213089 
L 946.034138 255.857001 
L 946.870441 251.181898 
L 948.543047 236.561496 
L 949.379351 232.052733 
L 950.215654 225.401508 
L 952.724563 191.903803 
L 953.560866 187.191127 
L 954.397169 189.139001 
L 955.233472 198.028818 
L 956.069775 215.54519 
L 957.742381 255.598793 
L 958.578684 270.373748 
L 959.414988 283.103067 
L 960.251291 290.053373 
L 961.087594 286.934519 
L 961.923897 277.615705 
L 964.432806 243.480404 
L 965.269109 237.026153 
L 966.105412 237.482007 
L 966.941715 244.177714 
L 967.778018 247.068313 
L 968.614321 245.521906 
L 969.450624 242.31227 
L 971.959534 226.394637 
L 972.795837 227.72892 
L 974.468443 241.506924 
L 975.304746 245.188624 
L 976.141049 250.243328 
L 977.813655 269.234019 
L 978.649958 272.445212 
L 979.486261 272.929559 
L 980.322565 274.276697 
L 981.158868 273.790257 
L 981.995171 269.857035 
L 983.667777 253.805702 
L 985.340383 246.347708 
L 986.176686 239.082477 
L 987.849292 219.451638 
L 989.521898 202.56779 
L 990.358201 196.719745 
L 991.194505 200.120996 
L 992.867111 230.094189 
L 993.703414 239.439996 
L 994.539717 250.082173 
L 995.37602 257.369548 
L 996.212323 256.058171 
L 997.884929 236.594997 
L 998.721232 230.414828 
L 999.557535 226.645884 
L 1000.393838 224.222304 
L 1001.230142 226.33926 
L 1002.066445 232.518247 
L 1003.739051 249.975884 
L 1004.575354 254.036808 
L 1005.411657 253.356244 
L 1006.24796 251.517153 
L 1007.084263 250.858271 
L 1007.920566 249.732217 
L 1009.593172 244.9175 
L 1010.429475 244.272187 
L 1011.265779 242.106878 
L 1012.102082 237.079508 
L 1012.938385 234.517743 
L 1013.774688 237.154013 
L 1014.610991 247.084886 
L 1015.447294 261.599255 
L 1016.283597 273.906498 
L 1017.1199 276.549046 
L 1017.956203 270.767236 
L 1018.792506 263.251207 
L 1019.628809 251.391046 
L 1020.465112 232.853598 
L 1021.301415 218.819902 
L 1022.137719 213.438384 
L 1022.974022 213.252137 
L 1023.810325 214.156527 
L 1024.646628 216.978405 
L 1026.319234 232.261813 
L 1027.155537 236.000431 
L 1027.99184 235.660894 
L 1028.828143 231.857037 
L 1029.664446 225.445317 
L 1030.500749 222.088534 
L 1031.337052 227.759697 
L 1032.173356 239.975426 
L 1034.682265 284.233364 
L 1035.518568 290.792848 
L 1036.354871 286.836408 
L 1037.191174 277.526239 
L 1038.027477 265.646499 
L 1039.700083 244.806304 
L 1040.536386 231.852235 
L 1041.372689 221.057691 
L 1042.208993 218.031853 
L 1043.045296 223.943626 
L 1044.717902 249.059368 
L 1045.554205 262.066232 
L 1046.390508 272.14408 
L 1047.226811 274.285094 
L 1048.063114 266.881428 
L 1048.899417 257.505894 
L 1049.73572 255.881168 
L 1050.572023 255.751016 
L 1051.408326 250.424484 
L 1053.080933 242.290886 
L 1053.917236 236.961569 
L 1054.753539 233.008133 
L 1055.589842 237.296242 
L 1056.426145 246.306566 
L 1057.262448 257.700334 
L 1058.098751 266.826751 
L 1058.935054 270.174217 
L 1059.771357 268.274653 
L 1061.443963 257.630967 
L 1062.280266 258.784355 
L 1063.11657 262.084728 
L 1063.952873 264.884117 
L 1064.789176 267.062324 
L 1065.625479 269.589822 
L 1066.461782 266.775559 
L 1068.134388 246.667216 
L 1068.970691 243.153147 
L 1069.806994 241.67217 
L 1070.643297 239.375392 
L 1071.4796 239.055038 
L 1072.315903 240.333666 
L 1073.98851 241.310618 
L 1075.661116 236.704802 
L 1076.497419 238.706479 
L 1078.170025 254.435241 
L 1079.006328 260.29223 
L 1079.842631 264.402304 
L 1080.678934 266.169895 
L 1081.515237 266.787932 
L 1082.35154 266.324021 
L 1083.187843 263.078677 
L 1084.024147 253.091001 
L 1085.696753 223.792293 
L 1086.533056 212.183956 
L 1087.369359 204.073428 
L 1088.205662 200.425203 
L 1089.041965 202.122065 
L 1090.714571 220.930291 
L 1091.550874 222.67947 
L 1093.22348 211.366894 
L 1094.059784 209.994115 
L 1094.896087 213.332917 
L 1095.73239 219.350207 
L 1097.404996 236.447852 
L 1098.241299 240.819609 
L 1099.077602 241.627638 
L 1099.913905 239.974531 
L 1100.750208 237.323345 
L 1101.586511 237.596841 
L 1102.422814 242.120614 
L 1104.09542 259.447875 
L 1104.931724 266.784365 
L 1105.768027 275.195698 
L 1106.60433 281.023711 
L 1107.440633 284.366331 
L 1108.276936 284.896378 
L 1109.113239 280.296703 
L 1109.949542 272.816696 
L 1110.785845 263.727843 
L 1111.622148 252.610081 
L 1113.294754 235.971885 
L 1114.967361 215.625285 
L 1115.803664 210.992227 
L 1116.639967 210.955066 
L 1117.47627 210.570049 
L 1118.312573 211.224853 
L 1119.148876 220.340514 
L 1119.985179 235.432109 
L 1120.821482 247.720333 
L 1121.657785 257.391201 
L 1122.494088 265.722767 
L 1123.330391 267.841365 
L 1124.166694 263.925449 
L 1125.002998 261.304237 
L 1125.839301 261.121541 
L 1126.675604 259.22459 
L 1127.511907 254.199961 
L 1128.34821 251.389896 
L 1129.184513 256.450034 
L 1130.020816 265.749363 
L 1130.857119 272.819694 
L 1131.693422 273.734302 
L 1132.529725 274.018482 
L 1133.366028 275.733807 
L 1134.202331 270.714726 
L 1135.874938 249.387297 
L 1136.711241 245.923195 
L 1137.547544 245.680051 
L 1139.22015 244.129322 
L 1140.056453 246.046025 
L 1140.892756 246.05844 
L 1141.729059 246.475521 
L 1142.565362 247.924773 
L 1143.401665 252.922714 
L 1144.237968 255.811097 
L 1145.074271 252.413765 
L 1146.746878 235.385051 
L 1147.583181 229.414547 
L 1148.419484 222.167893 
L 1149.255787 213.779601 
L 1150.09209 213.077421 
L 1150.928393 223.251077 
L 1151.764696 235.467432 
L 1152.600999 245.650104 
L 1153.437302 254.051116 
L 1154.273605 265.938529 
L 1155.109908 275.434826 
L 1155.946211 277.235651 
L 1156.782515 273.942384 
L 1157.618818 269.026146 
L 1158.455121 265.361989 
L 1159.291424 260.887848 
L 1160.127727 258.161875 
L 1160.96403 259.497575 
L 1161.800333 262.719729 
L 1162.636636 262.72189 
L 1163.472939 263.437295 
L 1164.309242 265.190705 
L 1165.145545 266.577145 
L 1165.981848 267.450608 
L 1165.981848 267.450608 
" style="fill:none;stroke:#000000;stroke-linecap:round;stroke-width:1.5;"/>
   </g>
   <g id="patch_3">
    <path d="M 162 441 
L 162 60.48 
" style="fill:none;stroke:#262626;stroke-linecap:square;stroke-linejoin:miter;stroke-width:1.25;"/>
   </g>
   <g id="patch_4">
    <path d="M 1166.4 441 
L 1166.4 60.48 
" style="fill:none;stroke:#262626;stroke-linecap:square;stroke-linejoin:miter;stroke-width:1.25;"/>
   </g>
   <g id="patch_5">
    <path d="M 162 441 
L 1166.4 441 
" style="fill:none;stroke:#262626;stroke-linecap:square;stroke-linejoin:miter;stroke-width:1.25;"/>
   </g>
   <g id="patch_6">
    <path d="M 162 60.48 
L 1166.4 60.48 
" style="fill:none;stroke:#262626;stroke-linecap:square;stroke-linejoin:miter;stroke-width:1.25;"/>
   </g>
  </g>
 </g>
 <defs>
  <clipPath id="p3eb2838a6e">
   <rect height="380.52" width="1004.4" x="162" y="60.48"/>
  </clipPath>
 </defs>
</svg>
